%TF.GenerationSoftware,Altium Limited,Altium Designer,25.3.3 (18)*%
G04 Layer_Color=8421504*
%FSLAX45Y45*%
%MOMM*%
%TF.SameCoordinates,94F19C35-717A-4B45-A619-7893C40BEDFD*%
%TF.FilePolarity,Positive*%
%TF.FileFunction,Paste,Top*%
%TF.Part,Single*%
G01*
G75*
%TA.AperFunction,SMDPad,CuDef*%
%ADD11R,1.05000X2.20000*%
%ADD12R,1.00000X1.00000*%
G04:AMPARAMS|DCode=13|XSize=0.6mm|YSize=0.7mm|CornerRadius=0.075mm|HoleSize=0mm|Usage=FLASHONLY|Rotation=270.000|XOffset=0mm|YOffset=0mm|HoleType=Round|Shape=RoundedRectangle|*
%AMROUNDEDRECTD13*
21,1,0.60000,0.55000,0,0,270.0*
21,1,0.45000,0.70000,0,0,270.0*
1,1,0.15000,-0.27500,-0.22500*
1,1,0.15000,-0.27500,0.22500*
1,1,0.15000,0.27500,0.22500*
1,1,0.15000,0.27500,-0.22500*
%
%ADD13ROUNDEDRECTD13*%
%ADD14R,0.45000X0.95000*%
%ADD15R,4.35000X3.45000*%
%ADD16R,0.65000X1.50000*%
%ADD17R,1.50000X1.10000*%
%TA.AperFunction,TestPad*%
G04:AMPARAMS|DCode=18|XSize=0.75mm|YSize=0.7mm|CornerRadius=0.035mm|HoleSize=0mm|Usage=FLASHONLY|Rotation=180.000|XOffset=0mm|YOffset=0mm|HoleType=Round|Shape=RoundedRectangle|*
%AMROUNDEDRECTD18*
21,1,0.75000,0.63000,0,0,180.0*
21,1,0.68000,0.70000,0,0,180.0*
1,1,0.07000,-0.34000,0.31500*
1,1,0.07000,0.34000,0.31500*
1,1,0.07000,0.34000,-0.31500*
1,1,0.07000,-0.34000,-0.31500*
%
%ADD18ROUNDEDRECTD18*%
%TA.AperFunction,SMDPad,CuDef*%
%ADD19R,0.85000X0.20000*%
%ADD20R,0.20000X0.85000*%
%ADD21R,4.05000X4.05000*%
G04:AMPARAMS|DCode=22|XSize=0.25mm|YSize=0.35mm|CornerRadius=0.03125mm|HoleSize=0mm|Usage=FLASHONLY|Rotation=90.000|XOffset=0mm|YOffset=0mm|HoleType=Round|Shape=RoundedRectangle|*
%AMROUNDEDRECTD22*
21,1,0.25000,0.28750,0,0,90.0*
21,1,0.18750,0.35000,0,0,90.0*
1,1,0.06250,0.14375,0.09375*
1,1,0.06250,0.14375,-0.09375*
1,1,0.06250,-0.14375,-0.09375*
1,1,0.06250,-0.14375,0.09375*
%
%ADD22ROUNDEDRECTD22*%
G04:AMPARAMS|DCode=23|XSize=0.25mm|YSize=0.35mm|CornerRadius=0.03125mm|HoleSize=0mm|Usage=FLASHONLY|Rotation=180.000|XOffset=0mm|YOffset=0mm|HoleType=Round|Shape=RoundedRectangle|*
%AMROUNDEDRECTD23*
21,1,0.25000,0.28750,0,0,180.0*
21,1,0.18750,0.35000,0,0,180.0*
1,1,0.06250,-0.09375,0.14375*
1,1,0.06250,0.09375,0.14375*
1,1,0.06250,0.09375,-0.14375*
1,1,0.06250,-0.09375,-0.14375*
%
%ADD23ROUNDEDRECTD23*%
G04:AMPARAMS|DCode=24|XSize=0.35mm|YSize=0.25mm|CornerRadius=0.0625mm|HoleSize=0mm|Usage=FLASHONLY|Rotation=90.000|XOffset=0mm|YOffset=0mm|HoleType=Round|Shape=RoundedRectangle|*
%AMROUNDEDRECTD24*
21,1,0.35000,0.12500,0,0,90.0*
21,1,0.22500,0.25000,0,0,90.0*
1,1,0.12500,0.06250,0.11250*
1,1,0.12500,0.06250,-0.11250*
1,1,0.12500,-0.06250,-0.11250*
1,1,0.12500,-0.06250,0.11250*
%
%ADD24ROUNDEDRECTD24*%
G04:AMPARAMS|DCode=25|XSize=0.6mm|YSize=0.7mm|CornerRadius=0.075mm|HoleSize=0mm|Usage=FLASHONLY|Rotation=180.000|XOffset=0mm|YOffset=0mm|HoleType=Round|Shape=RoundedRectangle|*
%AMROUNDEDRECTD25*
21,1,0.60000,0.55000,0,0,180.0*
21,1,0.45000,0.70000,0,0,180.0*
1,1,0.15000,-0.22500,0.27500*
1,1,0.15000,0.22500,0.27500*
1,1,0.15000,0.22500,-0.27500*
1,1,0.15000,-0.22500,-0.27500*
%
%ADD25ROUNDEDRECTD25*%
G04:AMPARAMS|DCode=26|XSize=0.35mm|YSize=0.25mm|CornerRadius=0.0625mm|HoleSize=0mm|Usage=FLASHONLY|Rotation=180.000|XOffset=0mm|YOffset=0mm|HoleType=Round|Shape=RoundedRectangle|*
%AMROUNDEDRECTD26*
21,1,0.35000,0.12500,0,0,180.0*
21,1,0.22500,0.25000,0,0,180.0*
1,1,0.12500,-0.11250,0.06250*
1,1,0.12500,0.11250,0.06250*
1,1,0.12500,0.11250,-0.06250*
1,1,0.12500,-0.11250,-0.06250*
%
%ADD26ROUNDEDRECTD26*%
%TA.AperFunction,ConnectorPad*%
%ADD27R,0.60000X1.15000*%
%ADD28R,0.30000X1.15000*%
%TA.AperFunction,SMDPad,CuDef*%
%ADD29R,1.50000X1.50000*%
%ADD30R,0.65000X0.65000*%
%ADD31R,0.57500X0.62000*%
G04:AMPARAMS|DCode=32|XSize=0.8mm|YSize=1mm|CornerRadius=0.1mm|HoleSize=0mm|Usage=FLASHONLY|Rotation=90.000|XOffset=0mm|YOffset=0mm|HoleType=Round|Shape=RoundedRectangle|*
%AMROUNDEDRECTD32*
21,1,0.80000,0.80000,0,0,90.0*
21,1,0.60000,1.00000,0,0,90.0*
1,1,0.20000,0.40000,0.30000*
1,1,0.20000,0.40000,-0.30000*
1,1,0.20000,-0.40000,-0.30000*
1,1,0.20000,-0.40000,0.30000*
%
%ADD32ROUNDEDRECTD32*%
%ADD33R,1.05000X0.65000*%
%ADD34R,0.30000X0.47500*%
%ADD35R,2.10000X1.90000*%
D11*
X5837500Y10055000D02*
D03*
X5542499D02*
D03*
D12*
X5690000Y10205000D02*
D03*
Y9905000D02*
D03*
D13*
X11235000Y8797499D02*
D03*
Y8697499D02*
D03*
X5497000Y9154500D02*
D03*
Y9054500D02*
D03*
X9450000Y8000000D02*
D03*
Y7900000D02*
D03*
X9580000Y7900000D02*
D03*
Y8000000D02*
D03*
X3197500Y7977500D02*
D03*
Y7877500D02*
D03*
X3070000Y7877500D02*
D03*
Y7977500D02*
D03*
X3590000Y8897500D02*
D03*
Y8797500D02*
D03*
X7304500Y7417000D02*
D03*
Y7317000D02*
D03*
X7609500Y7584499D02*
D03*
Y7684499D02*
D03*
X7227000Y7699500D02*
D03*
Y7599500D02*
D03*
X7337000Y7599499D02*
D03*
Y7699499D02*
D03*
X7424500Y7819499D02*
D03*
Y7919499D02*
D03*
X7194500Y7417000D02*
D03*
Y7317000D02*
D03*
D14*
X6969000Y8479499D02*
D03*
X7096000D02*
D03*
X7223000D02*
D03*
X7350000D02*
D03*
Y9259499D02*
D03*
X7223000D02*
D03*
X7096000D02*
D03*
X6969000D02*
D03*
D15*
X7159500Y8869499D02*
D03*
D16*
X7619000Y9139500D02*
D03*
X7746000D02*
D03*
X7873000D02*
D03*
X8000000D02*
D03*
Y8599500D02*
D03*
X7873000D02*
D03*
X7746000D02*
D03*
X7619000D02*
D03*
D17*
X7556999Y9719500D02*
D03*
X7256999D02*
D03*
Y9869500D02*
D03*
X7556999D02*
D03*
D18*
X6097000Y9582000D02*
D03*
X6232000D02*
D03*
X6097000Y9682000D02*
D03*
X6232000D02*
D03*
D19*
X5932000Y9142000D02*
D03*
Y9102000D02*
D03*
Y9062000D02*
D03*
Y9022000D02*
D03*
Y8982000D02*
D03*
Y8942000D02*
D03*
Y8902000D02*
D03*
Y8862000D02*
D03*
Y8822000D02*
D03*
Y8782000D02*
D03*
Y8742000D02*
D03*
Y8702000D02*
D03*
Y8662000D02*
D03*
Y8622000D02*
D03*
X6622000D02*
D03*
Y8662000D02*
D03*
Y8702000D02*
D03*
Y8742000D02*
D03*
Y8782000D02*
D03*
Y8822000D02*
D03*
Y8862000D02*
D03*
Y8902000D02*
D03*
Y8942000D02*
D03*
Y8982000D02*
D03*
Y9022000D02*
D03*
Y9062000D02*
D03*
Y9102000D02*
D03*
Y9142000D02*
D03*
D20*
X6017000Y8537000D02*
D03*
X6057000D02*
D03*
X6097000D02*
D03*
X6137000D02*
D03*
X6177000D02*
D03*
X6217000D02*
D03*
X6257000D02*
D03*
X6297000D02*
D03*
X6337000D02*
D03*
X6377000D02*
D03*
X6417000D02*
D03*
X6457000D02*
D03*
X6497000D02*
D03*
X6537000D02*
D03*
Y9227000D02*
D03*
X6497000D02*
D03*
X6457000D02*
D03*
X6417000D02*
D03*
X6377000D02*
D03*
X6337000D02*
D03*
X6297000D02*
D03*
X6257000D02*
D03*
X6217000D02*
D03*
X6177000D02*
D03*
X6137000D02*
D03*
X6097000D02*
D03*
X6057000D02*
D03*
X6017000D02*
D03*
D21*
X6277000Y8882000D02*
D03*
D22*
X6714499Y8584500D02*
D03*
Y8529500D02*
D03*
X6774499Y8997000D02*
D03*
Y8942000D02*
D03*
X6769499Y8584500D02*
D03*
Y8529500D02*
D03*
X6716999Y8942000D02*
D03*
Y8997000D02*
D03*
X6234499Y8429500D02*
D03*
Y8374500D02*
D03*
X5644500Y9074501D02*
D03*
Y9129501D02*
D03*
X5582000Y9074501D02*
D03*
Y9129501D02*
D03*
X6969500Y9357000D02*
D03*
Y9412000D02*
D03*
X7671999Y9869500D02*
D03*
Y9924501D02*
D03*
X6337000Y9397000D02*
D03*
Y9342000D02*
D03*
X6234499Y9342000D02*
D03*
Y9397001D02*
D03*
X6176999Y9342000D02*
D03*
Y9397001D02*
D03*
X6097000Y9397000D02*
D03*
Y9342000D02*
D03*
D23*
X6147000Y8368000D02*
D03*
X6092000D02*
D03*
X5757000Y9132000D02*
D03*
X5702000D02*
D03*
X7674500Y9264500D02*
D03*
X7619500D02*
D03*
X6416999Y9319500D02*
D03*
X6472000D02*
D03*
X6032000Y9329500D02*
D03*
X5977000D02*
D03*
X5689500Y9547001D02*
D03*
X5634500D02*
D03*
X5689501Y9732001D02*
D03*
X5634501D02*
D03*
X6164500Y9497000D02*
D03*
X6219500D02*
D03*
X6097000Y9497001D02*
D03*
X6042000D02*
D03*
X3570000Y7320000D02*
D03*
X3515000D02*
D03*
X2822500Y7380000D02*
D03*
X2767499D02*
D03*
X2822500Y7324999D02*
D03*
X2767499D02*
D03*
D24*
X5756999Y9074499D02*
D03*
X5697000D02*
D03*
D25*
X7556999Y9562000D02*
D03*
X7456999D02*
D03*
X7114499Y9719500D02*
D03*
X7014499D02*
D03*
X7111999Y9869500D02*
D03*
X7011999D02*
D03*
X5914499Y9412000D02*
D03*
X6014500D02*
D03*
X7755000Y7837500D02*
D03*
X7655000D02*
D03*
X7754500Y7949500D02*
D03*
X7654500D02*
D03*
X10060000Y9907500D02*
D03*
X10160000D02*
D03*
X2382500Y9897500D02*
D03*
X2482500D02*
D03*
X6222002Y7744500D02*
D03*
X6122001D02*
D03*
X6594500Y7744500D02*
D03*
X6694500D02*
D03*
D26*
X5689499Y9609501D02*
D03*
Y9669501D02*
D03*
D27*
X6067000Y7536000D02*
D03*
X6147000D02*
D03*
X6627000D02*
D03*
X6707000D02*
D03*
D28*
X6262000D02*
D03*
X6362000D02*
D03*
X6412000D02*
D03*
X6512000D02*
D03*
X6562000D02*
D03*
X6462000D02*
D03*
X6312000D02*
D03*
X6212000D02*
D03*
D29*
X5875000Y7462000D02*
D03*
X6899000D02*
D03*
Y7065000D02*
D03*
X5875000D02*
D03*
D30*
X3624999Y7234999D02*
D03*
X3514999D02*
D03*
X2877499Y7239999D02*
D03*
X2767499D02*
D03*
X6274501Y7852000D02*
D03*
X6384501D02*
D03*
X6599500Y7852000D02*
D03*
X6489500D02*
D03*
D31*
X8061200Y8222500D02*
D03*
Y8032500D02*
D03*
X8298800Y8127500D02*
D03*
D32*
X8577500D02*
D03*
Y7977500D02*
D03*
X8420001D02*
D03*
Y8127500D02*
D03*
X8349500Y7364499D02*
D03*
Y7514499D02*
D03*
X8209500Y7364499D02*
D03*
Y7514499D02*
D03*
X7489501Y7049500D02*
D03*
Y7199500D02*
D03*
X7339500Y7049499D02*
D03*
Y7199499D02*
D03*
D33*
X3182499Y6910001D02*
D03*
X2767499D02*
D03*
X3182499Y7125001D02*
D03*
X2767499D02*
D03*
X3930000Y6905001D02*
D03*
X3515000D02*
D03*
X3930000Y7120000D02*
D03*
X3515000D02*
D03*
D34*
X7439500Y7315700D02*
D03*
X7489500D02*
D03*
X7539500D02*
D03*
X7589500D02*
D03*
Y7483299D02*
D03*
X7539500D02*
D03*
X7489500D02*
D03*
X7439500D02*
D03*
D35*
X7897000Y7187000D02*
D03*
Y7577000D02*
D03*
%TF.MD5,31b4660f4604b6a3e0e42b67e90d9daa*%
M02*
