%TF.GenerationSoftware,Altium Limited,Altium Designer,25.3.3 (18)*%
G04 Layer_Color=16711935*
%FSLAX45Y45*%
%MOMM*%
%TF.SameCoordinates,94F19C35-717A-4B45-A619-7893C40BEDFD*%
%TF.FilePolarity,Negative*%
%TF.FileFunction,Soldermask,Bot*%
%TF.Part,Single*%
G01*
G75*
%TA.AperFunction,ViaPad*%
%ADD87C,5.20320*%
%TA.AperFunction,ComponentPad*%
%ADD88C,1.92820*%
%ADD89R,1.92820X1.92820*%
%ADD90C,1.56820*%
%ADD91R,1.56820X1.56820*%
%ADD92C,0.52820*%
%ADD93C,1.85320*%
%ADD94R,1.85320X1.85320*%
%ADD95C,2.60320*%
%ADD96C,2.15320*%
%ADD97R,1.92820X1.92820*%
D87*
X1682500Y10485000D02*
D03*
X11057500Y10485000D02*
D03*
X11057500Y7110000D02*
D03*
X1682500Y7110000D02*
D03*
D88*
X4237500Y7000000D02*
D03*
X4491500D02*
D03*
X4745500D02*
D03*
X4999500D02*
D03*
X5253500D02*
D03*
X4190522Y8512277D02*
D03*
Y8258277D02*
D03*
Y8004277D02*
D03*
D89*
X5507500Y7000000D02*
D03*
D90*
X9345000Y7102500D02*
D03*
X9095000D02*
D03*
D91*
X8845000D02*
D03*
D92*
X6098000Y7410000D02*
D03*
X6676000D02*
D03*
D93*
X10410868Y9670500D02*
D03*
X10160868D02*
D03*
X9910868D02*
D03*
X11033868Y8797500D02*
D03*
Y9047500D02*
D03*
X2732500Y9670501D02*
D03*
X2482500D02*
D03*
X2232500D02*
D03*
X3355500Y8797501D02*
D03*
Y9047501D02*
D03*
D94*
X11033868Y8547500D02*
D03*
X3355500Y8547501D02*
D03*
D95*
X10793368Y9297500D02*
D03*
X9528369D02*
D03*
Y8297500D02*
D03*
X10793368D02*
D03*
X3115000Y9297501D02*
D03*
X1850000D02*
D03*
Y8297501D02*
D03*
X3115000D02*
D03*
D96*
X9835868Y8222500D02*
D03*
Y7772500D02*
D03*
X10485869Y8222500D02*
D03*
Y7772500D02*
D03*
X2157500Y8222500D02*
D03*
Y7772501D02*
D03*
X2807500Y8222500D02*
D03*
Y7772501D02*
D03*
D97*
X4190522Y7750277D02*
D03*
%TF.MD5,ee1dfeaa1224a2cc5f18b3d9f2e64979*%
M02*
