%TF.GenerationSoftware,Altium Limited,Altium Designer,25.3.3 (18)*%
G04 Layer_Color=8388736*
%FSLAX45Y45*%
%MOMM*%
%TF.SameCoordinates,94F19C35-717A-4B45-A619-7893C40BEDFD*%
%TF.FilePolarity,Negative*%
%TF.FileFunction,Soldermask,Top*%
%TF.Part,Single*%
G01*
G75*
%TA.AperFunction,NonConductor*%
%ADD61C,0.15600*%
%TA.AperFunction,SMDPad,CuDef*%
%ADD62R,1.11000X2.26000*%
%ADD63R,1.06000X1.06000*%
G04:AMPARAMS|DCode=64|XSize=0.8032mm|YSize=0.9032mm|CornerRadius=0.1766mm|HoleSize=0mm|Usage=FLASHONLY|Rotation=270.000|XOffset=0mm|YOffset=0mm|HoleType=Round|Shape=RoundedRectangle|*
%AMROUNDEDRECTD64*
21,1,0.80320,0.55000,0,0,270.0*
21,1,0.45000,0.90320,0,0,270.0*
1,1,0.35320,-0.27500,-0.22500*
1,1,0.35320,-0.27500,0.22500*
1,1,0.35320,0.27500,0.22500*
1,1,0.35320,0.27500,-0.22500*
%
%ADD64ROUNDEDRECTD64*%
%ADD65R,0.51000X1.01000*%
%ADD66R,4.41000X3.51000*%
%ADD67R,0.71000X1.56000*%
%ADD68R,1.56000X1.16000*%
%TA.AperFunction,TestPad*%
G04:AMPARAMS|DCode=69|XSize=0.81mm|YSize=0.76mm|CornerRadius=0.065mm|HoleSize=0mm|Usage=FLASHONLY|Rotation=180.000|XOffset=0mm|YOffset=0mm|HoleType=Round|Shape=RoundedRectangle|*
%AMROUNDEDRECTD69*
21,1,0.81000,0.63000,0,0,180.0*
21,1,0.68000,0.76000,0,0,180.0*
1,1,0.13000,-0.34000,0.31500*
1,1,0.13000,0.34000,0.31500*
1,1,0.13000,0.34000,-0.31500*
1,1,0.13000,-0.34000,-0.31500*
%
%ADD69ROUNDEDRECTD69*%
%TA.AperFunction,SMDPad,CuDef*%
%ADD70R,0.91000X0.26000*%
%ADD71R,0.26000X0.91000*%
%ADD72R,4.11000X4.11000*%
G04:AMPARAMS|DCode=73|XSize=0.35mm|YSize=0.45mm|CornerRadius=0.08125mm|HoleSize=0mm|Usage=FLASHONLY|Rotation=90.000|XOffset=0mm|YOffset=0mm|HoleType=Round|Shape=RoundedRectangle|*
%AMROUNDEDRECTD73*
21,1,0.35000,0.28750,0,0,90.0*
21,1,0.18750,0.45000,0,0,90.0*
1,1,0.16250,0.14375,0.09375*
1,1,0.16250,0.14375,-0.09375*
1,1,0.16250,-0.14375,-0.09375*
1,1,0.16250,-0.14375,0.09375*
%
%ADD73ROUNDEDRECTD73*%
G04:AMPARAMS|DCode=74|XSize=0.35mm|YSize=0.45mm|CornerRadius=0.08125mm|HoleSize=0mm|Usage=FLASHONLY|Rotation=180.000|XOffset=0mm|YOffset=0mm|HoleType=Round|Shape=RoundedRectangle|*
%AMROUNDEDRECTD74*
21,1,0.35000,0.28750,0,0,180.0*
21,1,0.18750,0.45000,0,0,180.0*
1,1,0.16250,-0.09375,0.14375*
1,1,0.16250,0.09375,0.14375*
1,1,0.16250,0.09375,-0.14375*
1,1,0.16250,-0.09375,-0.14375*
%
%ADD74ROUNDEDRECTD74*%
G04:AMPARAMS|DCode=75|XSize=0.45mm|YSize=0.35mm|CornerRadius=0.1125mm|HoleSize=0mm|Usage=FLASHONLY|Rotation=90.000|XOffset=0mm|YOffset=0mm|HoleType=Round|Shape=RoundedRectangle|*
%AMROUNDEDRECTD75*
21,1,0.45000,0.12500,0,0,90.0*
21,1,0.22500,0.35000,0,0,90.0*
1,1,0.22500,0.06250,0.11250*
1,1,0.22500,0.06250,-0.11250*
1,1,0.22500,-0.06250,-0.11250*
1,1,0.22500,-0.06250,0.11250*
%
%ADD75ROUNDEDRECTD75*%
G04:AMPARAMS|DCode=76|XSize=0.8032mm|YSize=0.9032mm|CornerRadius=0.1766mm|HoleSize=0mm|Usage=FLASHONLY|Rotation=180.000|XOffset=0mm|YOffset=0mm|HoleType=Round|Shape=RoundedRectangle|*
%AMROUNDEDRECTD76*
21,1,0.80320,0.55000,0,0,180.0*
21,1,0.45000,0.90320,0,0,180.0*
1,1,0.35320,-0.22500,0.27500*
1,1,0.35320,0.22500,0.27500*
1,1,0.35320,0.22500,-0.27500*
1,1,0.35320,-0.22500,-0.27500*
%
%ADD76ROUNDEDRECTD76*%
G04:AMPARAMS|DCode=77|XSize=0.45mm|YSize=0.35mm|CornerRadius=0.1125mm|HoleSize=0mm|Usage=FLASHONLY|Rotation=180.000|XOffset=0mm|YOffset=0mm|HoleType=Round|Shape=RoundedRectangle|*
%AMROUNDEDRECTD77*
21,1,0.45000,0.12500,0,0,180.0*
21,1,0.22500,0.35000,0,0,180.0*
1,1,0.22500,-0.11250,0.06250*
1,1,0.22500,0.11250,0.06250*
1,1,0.22500,0.11250,-0.06250*
1,1,0.22500,-0.11250,-0.06250*
%
%ADD77ROUNDEDRECTD77*%
%TA.AperFunction,ConnectorPad*%
%ADD78R,0.66000X1.21000*%
%ADD79R,0.36000X1.21000*%
%TA.AperFunction,SMDPad,CuDef*%
%ADD80R,1.70320X1.70320*%
%ADD81R,0.71000X0.71000*%
%ADD82R,0.63500X0.68000*%
G04:AMPARAMS|DCode=83|XSize=1.0032mm|YSize=1.2032mm|CornerRadius=0.2016mm|HoleSize=0mm|Usage=FLASHONLY|Rotation=90.000|XOffset=0mm|YOffset=0mm|HoleType=Round|Shape=RoundedRectangle|*
%AMROUNDEDRECTD83*
21,1,1.00320,0.80000,0,0,90.0*
21,1,0.60000,1.20320,0,0,90.0*
1,1,0.40320,0.40000,0.30000*
1,1,0.40320,0.40000,-0.30000*
1,1,0.40320,-0.40000,-0.30000*
1,1,0.40320,-0.40000,0.30000*
%
%ADD83ROUNDEDRECTD83*%
%ADD84R,1.25320X0.85320*%
%ADD85R,0.36000X0.53500*%
%ADD86R,2.30320X2.10320*%
%TA.AperFunction,ViaPad*%
%ADD87C,5.20320*%
%TA.AperFunction,ComponentPad*%
%ADD88C,1.92820*%
%ADD89R,1.92820X1.92820*%
%ADD90C,1.56820*%
%ADD91R,1.56820X1.56820*%
%ADD92C,0.52820*%
%ADD93C,1.85320*%
%ADD94R,1.85320X1.85320*%
%ADD95C,2.60320*%
%ADD96C,2.15320*%
%ADD97R,1.92820X1.92820*%
%TA.AperFunction,ViaPad*%
%ADD98C,0.51000*%
D61*
X5689499Y9602002D02*
X5689499D01*
D62*
X5837500Y10055000D02*
D03*
X5542499D02*
D03*
D63*
X5690000Y10205000D02*
D03*
Y9905000D02*
D03*
D64*
X11235000Y8797499D02*
D03*
Y8697499D02*
D03*
X5497000Y9154500D02*
D03*
Y9054500D02*
D03*
X9450000Y8000000D02*
D03*
Y7900000D02*
D03*
X9580000Y7900000D02*
D03*
Y8000000D02*
D03*
X3197500Y7977500D02*
D03*
Y7877500D02*
D03*
X3070000Y7877500D02*
D03*
Y7977500D02*
D03*
X3590000Y8897500D02*
D03*
Y8797500D02*
D03*
X7304500Y7417000D02*
D03*
Y7317000D02*
D03*
X7609500Y7584499D02*
D03*
Y7684499D02*
D03*
X7227000Y7699500D02*
D03*
Y7599500D02*
D03*
X7337000Y7599499D02*
D03*
Y7699499D02*
D03*
X7424500Y7819499D02*
D03*
Y7919499D02*
D03*
X7194500Y7417000D02*
D03*
Y7317000D02*
D03*
D65*
X6969000Y8479499D02*
D03*
X7096000D02*
D03*
X7223000D02*
D03*
X7350000D02*
D03*
Y9259499D02*
D03*
X7223000D02*
D03*
X7096000D02*
D03*
X6969000D02*
D03*
D66*
X7159500Y8869499D02*
D03*
D67*
X7619000Y9139500D02*
D03*
X7746000D02*
D03*
X7873000D02*
D03*
X8000000D02*
D03*
Y8599500D02*
D03*
X7873000D02*
D03*
X7746000D02*
D03*
X7619000D02*
D03*
D68*
X7556999Y9719500D02*
D03*
X7256999D02*
D03*
Y9869500D02*
D03*
X7556999D02*
D03*
D69*
X6097000Y9582000D02*
D03*
X6232000D02*
D03*
X6097000Y9682000D02*
D03*
X6232000D02*
D03*
D70*
X5932000Y9142000D02*
D03*
Y9102000D02*
D03*
Y9062000D02*
D03*
Y9022000D02*
D03*
Y8982000D02*
D03*
Y8942000D02*
D03*
Y8902000D02*
D03*
Y8862000D02*
D03*
Y8822000D02*
D03*
Y8782000D02*
D03*
Y8742000D02*
D03*
Y8702000D02*
D03*
Y8662000D02*
D03*
Y8622000D02*
D03*
X6622000D02*
D03*
Y8662000D02*
D03*
Y8702000D02*
D03*
Y8742000D02*
D03*
Y8782000D02*
D03*
Y8822000D02*
D03*
Y8862000D02*
D03*
Y8902000D02*
D03*
Y8942000D02*
D03*
Y8982000D02*
D03*
Y9022000D02*
D03*
Y9062000D02*
D03*
Y9102000D02*
D03*
Y9142000D02*
D03*
D71*
X6017000Y8537000D02*
D03*
X6057000D02*
D03*
X6097000D02*
D03*
X6137000D02*
D03*
X6177000D02*
D03*
X6217000D02*
D03*
X6257000D02*
D03*
X6297000D02*
D03*
X6337000D02*
D03*
X6377000D02*
D03*
X6417000D02*
D03*
X6457000D02*
D03*
X6497000D02*
D03*
X6537000D02*
D03*
Y9227000D02*
D03*
X6497000D02*
D03*
X6457000D02*
D03*
X6417000D02*
D03*
X6377000D02*
D03*
X6337000D02*
D03*
X6297000D02*
D03*
X6257000D02*
D03*
X6217000D02*
D03*
X6177000D02*
D03*
X6137000D02*
D03*
X6097000D02*
D03*
X6057000D02*
D03*
X6017000D02*
D03*
D72*
X6277000Y8882000D02*
D03*
D73*
X6714499Y8584500D02*
D03*
Y8529500D02*
D03*
X6774499Y8997000D02*
D03*
Y8942000D02*
D03*
X6769499Y8584500D02*
D03*
Y8529500D02*
D03*
X6716999Y8942000D02*
D03*
Y8997000D02*
D03*
X6234499Y8429500D02*
D03*
Y8374500D02*
D03*
X5644500Y9074501D02*
D03*
Y9129501D02*
D03*
X5582000Y9074501D02*
D03*
Y9129501D02*
D03*
X6969500Y9357000D02*
D03*
Y9412000D02*
D03*
X7671999Y9869500D02*
D03*
Y9924501D02*
D03*
X6337000Y9397000D02*
D03*
Y9342000D02*
D03*
X6234499Y9342000D02*
D03*
Y9397001D02*
D03*
X6176999Y9342000D02*
D03*
Y9397001D02*
D03*
X6097000Y9397000D02*
D03*
Y9342000D02*
D03*
D74*
X6147000Y8368000D02*
D03*
X6092000D02*
D03*
X5757000Y9132000D02*
D03*
X5702000D02*
D03*
X7674500Y9264500D02*
D03*
X7619500D02*
D03*
X6416999Y9319500D02*
D03*
X6472000D02*
D03*
X6032000Y9329500D02*
D03*
X5977000D02*
D03*
X5689500Y9547001D02*
D03*
X5634500D02*
D03*
X5689501Y9732001D02*
D03*
X5634501D02*
D03*
X6164500Y9497000D02*
D03*
X6219500D02*
D03*
X6097000Y9497001D02*
D03*
X6042000D02*
D03*
X3570000Y7320000D02*
D03*
X3515000D02*
D03*
X2822500Y7380000D02*
D03*
X2767499D02*
D03*
X2822500Y7324999D02*
D03*
X2767499D02*
D03*
D75*
X5756999Y9074499D02*
D03*
X5697000D02*
D03*
D76*
X7556999Y9562000D02*
D03*
X7456999D02*
D03*
X7114499Y9719500D02*
D03*
X7014499D02*
D03*
X7111999Y9869500D02*
D03*
X7011999D02*
D03*
X5914499Y9412000D02*
D03*
X6014500D02*
D03*
X7755000Y7837500D02*
D03*
X7655000D02*
D03*
X7754500Y7949500D02*
D03*
X7654500D02*
D03*
X10060000Y9907500D02*
D03*
X10160000D02*
D03*
X2382500Y9897500D02*
D03*
X2482500D02*
D03*
X6222002Y7744500D02*
D03*
X6122001D02*
D03*
X6594500Y7744500D02*
D03*
X6694500D02*
D03*
D77*
X5689499Y9609501D02*
D03*
Y9669501D02*
D03*
D78*
X6067000Y7536000D02*
D03*
X6147000D02*
D03*
X6627000D02*
D03*
X6707000D02*
D03*
D79*
X6262000D02*
D03*
X6362000D02*
D03*
X6412000D02*
D03*
X6512000D02*
D03*
X6562000D02*
D03*
X6462000D02*
D03*
X6312000D02*
D03*
X6212000D02*
D03*
D80*
X5875000Y7462000D02*
D03*
X6899000D02*
D03*
Y7065000D02*
D03*
X5875000D02*
D03*
D81*
X3624999Y7234999D02*
D03*
X3514999D02*
D03*
X2877499Y7239999D02*
D03*
X2767499D02*
D03*
X6274501Y7852000D02*
D03*
X6384501D02*
D03*
X6599500Y7852000D02*
D03*
X6489500D02*
D03*
D82*
X8061200Y8222500D02*
D03*
Y8032500D02*
D03*
X8298800Y8127500D02*
D03*
D83*
X8577500D02*
D03*
Y7977500D02*
D03*
X8420001D02*
D03*
Y8127500D02*
D03*
X8349500Y7364499D02*
D03*
Y7514499D02*
D03*
X8209500Y7364499D02*
D03*
Y7514499D02*
D03*
X7489501Y7049500D02*
D03*
Y7199500D02*
D03*
X7339500Y7049499D02*
D03*
Y7199499D02*
D03*
D84*
X3182499Y6910001D02*
D03*
X2767499D02*
D03*
X3182499Y7125001D02*
D03*
X2767499D02*
D03*
X3930000Y6905001D02*
D03*
X3515000D02*
D03*
X3930000Y7120000D02*
D03*
X3515000D02*
D03*
D85*
X7439500Y7315700D02*
D03*
X7489500D02*
D03*
X7539500D02*
D03*
X7589500D02*
D03*
Y7483299D02*
D03*
X7539500D02*
D03*
X7489500D02*
D03*
X7439500D02*
D03*
D86*
X7897000Y7187000D02*
D03*
Y7577000D02*
D03*
D87*
X1682500Y10485000D02*
D03*
X11057500Y10485000D02*
D03*
X11057500Y7110000D02*
D03*
X1682500Y7110000D02*
D03*
D88*
X4237500Y7000000D02*
D03*
X4491500D02*
D03*
X4745500D02*
D03*
X4999500D02*
D03*
X5253500D02*
D03*
X4190522Y8512277D02*
D03*
Y8258277D02*
D03*
Y8004277D02*
D03*
D89*
X5507500Y7000000D02*
D03*
D90*
X9345000Y7102500D02*
D03*
X9095000D02*
D03*
D91*
X8845000D02*
D03*
D92*
X6098000Y7410000D02*
D03*
X6676000D02*
D03*
D93*
X10410868Y9670500D02*
D03*
X10160868D02*
D03*
X9910868D02*
D03*
X11033868Y8797500D02*
D03*
Y9047500D02*
D03*
X2732500Y9670501D02*
D03*
X2482500D02*
D03*
X2232500D02*
D03*
X3355500Y8797501D02*
D03*
Y9047501D02*
D03*
D94*
X11033868Y8547500D02*
D03*
X3355500Y8547501D02*
D03*
D95*
X10793368Y9297500D02*
D03*
X9528369D02*
D03*
Y8297500D02*
D03*
X10793368D02*
D03*
X3115000Y9297501D02*
D03*
X1850000D02*
D03*
Y8297501D02*
D03*
X3115000D02*
D03*
D96*
X9835868Y8222500D02*
D03*
Y7772500D02*
D03*
X10485869Y8222500D02*
D03*
Y7772500D02*
D03*
X2157500Y8222500D02*
D03*
Y7772501D02*
D03*
X2807500Y8222500D02*
D03*
Y7772501D02*
D03*
D97*
X4190522Y7750277D02*
D03*
D98*
X6422000Y8737001D02*
D03*
X6421999Y9027000D02*
D03*
X6422000Y8882001D02*
D03*
X6276999Y9027000D02*
D03*
X6131999Y9026999D02*
D03*
X7287000Y8741999D02*
D03*
X7159500D02*
D03*
X7031999D02*
D03*
Y8869499D02*
D03*
X6277000Y8737000D02*
D03*
X6132000Y8737000D02*
D03*
X7287000Y8869499D02*
D03*
Y8997000D02*
D03*
X7159500Y8869499D02*
D03*
Y8997000D02*
D03*
X7031999D02*
D03*
X6277000Y8882000D02*
D03*
X6132000Y8882000D02*
D03*
%TF.MD5,a9ed848930a9ed97eefbc2fe305e187e*%
M02*
