%TF.GenerationSoftware,Altium Limited,Altium Designer,25.3.3 (18)*%
G04 Layer_Physical_Order=1*
G04 Layer_Color=255*
%FSLAX45Y45*%
%MOMM*%
%TF.SameCoordinates,94F19C35-717A-4B45-A619-7893C40BEDFD*%
%TF.FilePolarity,Positive*%
%TF.FileFunction,Copper,L1,Top,Signal*%
%TF.Part,Single*%
G01*
G75*
%TA.AperFunction,Conductor*%
%ADD10C,0.15600*%
%TA.AperFunction,SMDPad,CuDef*%
%ADD11R,1.05000X2.20000*%
%ADD12R,1.00000X1.00000*%
G04:AMPARAMS|DCode=13|XSize=0.6mm|YSize=0.7mm|CornerRadius=0.075mm|HoleSize=0mm|Usage=FLASHONLY|Rotation=270.000|XOffset=0mm|YOffset=0mm|HoleType=Round|Shape=RoundedRectangle|*
%AMROUNDEDRECTD13*
21,1,0.60000,0.55000,0,0,270.0*
21,1,0.45000,0.70000,0,0,270.0*
1,1,0.15000,-0.27500,-0.22500*
1,1,0.15000,-0.27500,0.22500*
1,1,0.15000,0.27500,0.22500*
1,1,0.15000,0.27500,-0.22500*
%
%ADD13ROUNDEDRECTD13*%
%ADD14R,0.45000X0.95000*%
%ADD15R,4.35000X3.45000*%
%ADD16R,0.65000X1.50000*%
%ADD17R,1.50000X1.10000*%
%TA.AperFunction,TestPad*%
G04:AMPARAMS|DCode=18|XSize=0.75mm|YSize=0.7mm|CornerRadius=0.035mm|HoleSize=0mm|Usage=FLASHONLY|Rotation=180.000|XOffset=0mm|YOffset=0mm|HoleType=Round|Shape=RoundedRectangle|*
%AMROUNDEDRECTD18*
21,1,0.75000,0.63000,0,0,180.0*
21,1,0.68000,0.70000,0,0,180.0*
1,1,0.07000,-0.34000,0.31500*
1,1,0.07000,0.34000,0.31500*
1,1,0.07000,0.34000,-0.31500*
1,1,0.07000,-0.34000,-0.31500*
%
%ADD18ROUNDEDRECTD18*%
%TA.AperFunction,SMDPad,CuDef*%
%ADD19R,0.85000X0.20000*%
%ADD20R,0.20000X0.85000*%
%ADD21R,4.05000X4.05000*%
G04:AMPARAMS|DCode=22|XSize=0.25mm|YSize=0.35mm|CornerRadius=0.03125mm|HoleSize=0mm|Usage=FLASHONLY|Rotation=90.000|XOffset=0mm|YOffset=0mm|HoleType=Round|Shape=RoundedRectangle|*
%AMROUNDEDRECTD22*
21,1,0.25000,0.28750,0,0,90.0*
21,1,0.18750,0.35000,0,0,90.0*
1,1,0.06250,0.14375,0.09375*
1,1,0.06250,0.14375,-0.09375*
1,1,0.06250,-0.14375,-0.09375*
1,1,0.06250,-0.14375,0.09375*
%
%ADD22ROUNDEDRECTD22*%
G04:AMPARAMS|DCode=23|XSize=0.25mm|YSize=0.35mm|CornerRadius=0.03125mm|HoleSize=0mm|Usage=FLASHONLY|Rotation=180.000|XOffset=0mm|YOffset=0mm|HoleType=Round|Shape=RoundedRectangle|*
%AMROUNDEDRECTD23*
21,1,0.25000,0.28750,0,0,180.0*
21,1,0.18750,0.35000,0,0,180.0*
1,1,0.06250,-0.09375,0.14375*
1,1,0.06250,0.09375,0.14375*
1,1,0.06250,0.09375,-0.14375*
1,1,0.06250,-0.09375,-0.14375*
%
%ADD23ROUNDEDRECTD23*%
G04:AMPARAMS|DCode=24|XSize=0.35mm|YSize=0.25mm|CornerRadius=0.0625mm|HoleSize=0mm|Usage=FLASHONLY|Rotation=90.000|XOffset=0mm|YOffset=0mm|HoleType=Round|Shape=RoundedRectangle|*
%AMROUNDEDRECTD24*
21,1,0.35000,0.12500,0,0,90.0*
21,1,0.22500,0.25000,0,0,90.0*
1,1,0.12500,0.06250,0.11250*
1,1,0.12500,0.06250,-0.11250*
1,1,0.12500,-0.06250,-0.11250*
1,1,0.12500,-0.06250,0.11250*
%
%ADD24ROUNDEDRECTD24*%
G04:AMPARAMS|DCode=25|XSize=0.6mm|YSize=0.7mm|CornerRadius=0.075mm|HoleSize=0mm|Usage=FLASHONLY|Rotation=180.000|XOffset=0mm|YOffset=0mm|HoleType=Round|Shape=RoundedRectangle|*
%AMROUNDEDRECTD25*
21,1,0.60000,0.55000,0,0,180.0*
21,1,0.45000,0.70000,0,0,180.0*
1,1,0.15000,-0.22500,0.27500*
1,1,0.15000,0.22500,0.27500*
1,1,0.15000,0.22500,-0.27500*
1,1,0.15000,-0.22500,-0.27500*
%
%ADD25ROUNDEDRECTD25*%
G04:AMPARAMS|DCode=26|XSize=0.35mm|YSize=0.25mm|CornerRadius=0.0625mm|HoleSize=0mm|Usage=FLASHONLY|Rotation=180.000|XOffset=0mm|YOffset=0mm|HoleType=Round|Shape=RoundedRectangle|*
%AMROUNDEDRECTD26*
21,1,0.35000,0.12500,0,0,180.0*
21,1,0.22500,0.25000,0,0,180.0*
1,1,0.12500,-0.11250,0.06250*
1,1,0.12500,0.11250,0.06250*
1,1,0.12500,0.11250,-0.06250*
1,1,0.12500,-0.11250,-0.06250*
%
%ADD26ROUNDEDRECTD26*%
%TA.AperFunction,ConnectorPad*%
%ADD27R,0.60000X1.15000*%
%ADD28R,0.30000X1.15000*%
%TA.AperFunction,SMDPad,CuDef*%
%ADD29R,1.50000X1.50000*%
%ADD30R,0.65000X0.65000*%
%ADD31R,0.57500X0.62000*%
G04:AMPARAMS|DCode=32|XSize=0.8mm|YSize=1mm|CornerRadius=0.1mm|HoleSize=0mm|Usage=FLASHONLY|Rotation=90.000|XOffset=0mm|YOffset=0mm|HoleType=Round|Shape=RoundedRectangle|*
%AMROUNDEDRECTD32*
21,1,0.80000,0.80000,0,0,90.0*
21,1,0.60000,1.00000,0,0,90.0*
1,1,0.20000,0.40000,0.30000*
1,1,0.20000,0.40000,-0.30000*
1,1,0.20000,-0.40000,-0.30000*
1,1,0.20000,-0.40000,0.30000*
%
%ADD32ROUNDEDRECTD32*%
%ADD33R,1.05000X0.65000*%
%ADD34R,0.30000X0.47500*%
%ADD35R,2.10000X1.90000*%
%TA.AperFunction,Conductor*%
%ADD36C,0.50000*%
%ADD37C,0.25000*%
%ADD38C,0.20000*%
%ADD39C,0.12300*%
%ADD40C,0.30000*%
%ADD41C,0.40000*%
%TA.AperFunction,ViaPad*%
%ADD42C,5.00000*%
%TA.AperFunction,ComponentPad*%
%ADD43C,1.72500*%
%ADD44R,1.72500X1.72500*%
%ADD45C,1.36500*%
%ADD46R,1.36500X1.36500*%
%ADD47C,0.32500*%
%ADD48C,1.65000*%
%ADD49R,1.65000X1.65000*%
%ADD50C,2.40000*%
%ADD51C,1.95000*%
%ADD52R,1.72500X1.72500*%
%TA.AperFunction,ViaPad*%
%ADD53C,0.60000*%
%ADD54C,0.80000*%
%ADD55C,0.45000*%
G36*
X5697301Y9839705D02*
X5681701D01*
X5673901Y9855305D01*
X5705101D01*
X5697301Y9839705D01*
D02*
G37*
G36*
X5697338Y9762172D02*
X5697898Y9755214D01*
X5698234Y9753431D01*
X5698645Y9751915D01*
X5699130Y9750668D01*
X5699690Y9749689D01*
X5700325Y9748977D01*
X5701034Y9748534D01*
X5677968D01*
X5678677Y9748977D01*
X5679311Y9749689D01*
X5679872Y9750668D01*
X5680357Y9751915D01*
X5680768Y9753431D01*
X5681104Y9755214D01*
X5681365Y9757265D01*
X5681664Y9762172D01*
X5681701Y9765028D01*
X5697301D01*
X5697338Y9762172D01*
D02*
G37*
G36*
X5700325Y9715024D02*
X5699690Y9714313D01*
X5699130Y9713333D01*
X5698645Y9712086D01*
X5698234Y9710571D01*
X5697898Y9708787D01*
X5697637Y9706736D01*
X5697338Y9701829D01*
X5697301Y9698973D01*
X5681701D01*
X5681664Y9701829D01*
X5681104Y9708787D01*
X5680768Y9710571D01*
X5680357Y9712086D01*
X5679872Y9713333D01*
X5679311Y9714313D01*
X5678677Y9715024D01*
X5677968Y9715467D01*
X5701034D01*
X5700325Y9715024D01*
D02*
G37*
G36*
X8399500Y7652000D02*
Y7479499D01*
X8394500Y7474499D01*
X7797000D01*
X7792000Y7479499D01*
Y7671999D01*
X8379500D01*
X8399500Y7652000D01*
D02*
G37*
G36*
X8394500Y7404499D02*
X8399500Y7399500D01*
Y7274500D01*
X8377000Y7251999D01*
X8182000D01*
X8159500Y7274499D01*
X8159500Y7393870D01*
X8170129Y7404500D01*
X8394500Y7404499D01*
D02*
G37*
G36*
X7504108Y7291999D02*
X7504500Y7290032D01*
Y7269499D01*
X7539500Y7234499D01*
Y7164500D01*
X7534500Y7159500D01*
X7292000D01*
X7270000Y7137500D01*
X7228886Y7137500D01*
X7219500Y7146886D01*
Y7244499D01*
X7224500Y7249499D01*
X7282000D01*
X7292000Y7239499D01*
X7444500D01*
X7474500Y7269499D01*
Y7271950D01*
X7474500D01*
Y7339499D01*
X7504108D01*
Y7291999D01*
D02*
G37*
G36*
X7657000Y7314499D02*
Y7232000D01*
X7649500Y7224499D01*
X7589500D01*
X7574500Y7239499D01*
Y7271950D01*
X7574500D01*
Y7290032D01*
X7574892Y7291999D01*
Y7339499D01*
X7632000D01*
X7657000Y7314499D01*
D02*
G37*
G36*
X7974500Y7436999D02*
X8002000Y7409500D01*
Y7092000D01*
X7792000D01*
Y7299499D01*
X7722000Y7369499D01*
X7564500Y7369499D01*
X7554500Y7359499D01*
Y7291999D01*
X7524500D01*
Y7359450D01*
X7524500D01*
Y7399500D01*
X7562000Y7436999D01*
X7974500Y7436999D01*
D02*
G37*
G36*
X7539500Y7084499D02*
Y6944499D01*
X7529500Y6934499D01*
X7299500D01*
X7289500Y6944499D01*
Y7079499D01*
Y7084499D01*
X7294500Y7089499D01*
X7534500D01*
X7539500Y7084499D01*
D02*
G37*
D10*
X5689500Y9384499D02*
G03*
X5932000Y9142000I242499J0D01*
G01*
X2157500Y8222500D02*
X2807500D01*
X9835868Y8222500D02*
X10485869D01*
X6902500Y10090000D02*
X9512500D01*
X9597500Y9660000D02*
Y10005000D01*
X9512500Y10090000D02*
X9597500Y10005000D01*
X6447500Y9635000D02*
X6902500Y10090000D01*
X9962500Y10182500D02*
X10160000Y9985000D01*
X6365000Y9700000D02*
X6847500Y10182500D01*
X9962500D01*
X3637500Y9160000D02*
X3952500Y8845000D01*
X3485000Y9897500D02*
X3637500Y9745000D01*
Y9160000D02*
Y9745000D01*
X11235000Y8797500D02*
X11240000D01*
X11033869D02*
X11235000D01*
Y9345000D01*
Y8797499D02*
Y8797500D01*
X10087800Y9445300D02*
X11134700D01*
X10087500Y9445000D02*
X10087800Y9445300D01*
X11134700D02*
X11235000Y9345000D01*
X2767499Y7125001D02*
X3182499D01*
X2767499Y7125001D02*
Y7239999D01*
Y7125001D02*
X2767499Y7125001D01*
X2767499Y7239999D02*
X2767499Y7239999D01*
Y7324999D01*
Y7380000D01*
X3515000Y7120000D02*
X3930000D01*
X3514999Y7120001D02*
Y7234999D01*
Y7120001D02*
X3515000Y7120000D01*
X3515000Y7320000D02*
Y7320000D01*
Y7235000D02*
Y7320000D01*
X3514999Y7234999D02*
X3515000Y7235000D01*
X3457500Y7320000D02*
X3514999D01*
X3515000Y7320000D01*
X2767499Y7380000D02*
X2767499Y7380000D01*
X2710000Y7380000D02*
X2767499D01*
X5752500Y8932500D02*
X5802000Y8982000D01*
X5932000D01*
X5687500Y8980000D02*
X5729500Y9022000D01*
X5932000D01*
Y8662000D02*
X6016000D01*
X6497000Y8425500D02*
X6747500Y8175000D01*
X6497000Y8425500D02*
Y8537000D01*
X6747500Y8175000D02*
X7717500D01*
X7935000Y8392500D01*
X8752500D01*
X9145000Y8000000D01*
X9450000D01*
X5828412Y8670000D02*
X5860412Y8702000D01*
X5932000D01*
X5827500Y8670000D02*
X5828412D01*
X5729500Y8742000D02*
X5932000D01*
X5707500Y8720000D02*
X5729500Y8742000D01*
X6447500Y9540000D02*
Y9635000D01*
X6365000Y9537500D02*
Y9700000D01*
X6337000Y9397000D02*
Y9433362D01*
X6346138Y9442500D02*
X6395000D01*
X6337000Y9433362D02*
X6346138Y9442500D01*
X9597500Y9660000D02*
X9812500Y9445000D01*
X10087500D01*
X10160000Y9907500D02*
Y9985000D01*
X10160434Y9670934D02*
Y9907066D01*
X10160000Y9907500D02*
X10160434Y9907066D01*
Y9670934D02*
X10160868Y9670500D01*
X3805000Y8115000D02*
Y8650000D01*
X3197500Y7977500D02*
X3667500D01*
X3805000Y8115000D01*
Y8650000D02*
X3875000Y8720000D01*
X5707500D01*
X3952500Y8845000D02*
X5707500D01*
X2482500Y9897500D02*
X3485000D01*
X5707500Y8845000D02*
X5730500Y8822000D01*
X5932000D01*
X3590000Y8797500D02*
X3605500Y8782000D01*
X5932000D01*
X9580000Y8000000D02*
X9580000Y8000000D01*
X9450000Y8000000D02*
X9580000D01*
X9580000Y8000000D02*
X9770000D01*
X9835868Y8065868D01*
Y8222500D01*
X2482500Y9897500D02*
X2482500Y9897500D01*
Y9670501D02*
Y9897500D01*
X3355500Y8797500D02*
X3590000D01*
X3355500Y8797501D02*
X3355500Y8797500D01*
X11033868Y8797500D02*
X11033869Y8797500D01*
X11240000D02*
X11240000Y8797501D01*
X4190522Y7750277D02*
X5147777D01*
X5765500Y8368000D01*
X6562000Y7536000D02*
Y7707000D01*
X6594500Y7739500D01*
Y7744500D01*
X6262000Y7536000D02*
Y7699501D01*
X6222002Y7739499D02*
X6262000Y7699501D01*
X6222002Y7739499D02*
Y7744500D01*
X3070000Y7977500D02*
X3070000Y7977500D01*
X3197500D01*
X2892500Y7977500D02*
X3070000D01*
X2807500Y8062500D02*
X2892500Y7977500D01*
X2807500Y8062500D02*
Y8222500D01*
X6257250Y9142750D02*
Y9226750D01*
Y9142750D02*
X6257500Y9142500D01*
X6257000Y9227000D02*
X6257250Y9226750D01*
X5725000Y8440000D02*
X6120000D01*
X6137000Y8457000D01*
Y8537000D01*
X5289277Y8004277D02*
X5725000Y8440000D01*
X4190522Y8004277D02*
X5289277D01*
X5765500Y8368000D02*
X6092000D01*
X6147000D02*
Y8373000D01*
X6177000Y8403000D02*
Y8537000D01*
X6147000Y8373000D02*
X6177000Y8403000D01*
X5689499Y9880801D02*
X5689501D01*
Y9732001D02*
Y9880801D01*
Y9669501D02*
Y9732001D01*
X5689499Y9669501D02*
X5689501D01*
X5689500Y9384499D02*
Y9547001D01*
X5689499Y9609501D02*
X5689500D01*
Y9547001D02*
Y9609501D01*
X7487000Y8284500D02*
X7619000Y8416500D01*
X7223000Y8380500D02*
Y8479499D01*
X7182000Y8339500D02*
X7223000Y8380500D01*
X6812000Y8284500D02*
X7487000D01*
X7095249Y8478749D02*
X7096000Y8479499D01*
X7095249Y8387750D02*
Y8478749D01*
X7094499Y8387000D02*
X7095249Y8387750D01*
X6926999Y8339500D02*
X7182000D01*
X6958304Y8490195D02*
X6969000Y8479499D01*
X6889499Y8377000D02*
X6926999Y8339500D01*
X6889499Y8377000D02*
Y8554500D01*
X6637000Y8459500D02*
X6812000Y8284500D01*
X6551999Y8459500D02*
X6637000D01*
X7746000Y8475500D02*
Y8599500D01*
X7619000Y8416500D02*
Y8599500D01*
X7223000Y8598000D02*
X7264499Y8639500D01*
X7223000Y8479499D02*
Y8598000D01*
X7096000Y8479499D02*
Y8588000D01*
X7039499Y8644500D02*
X7096000Y8588000D01*
X6958304Y8490195D02*
Y8558196D01*
X7873000Y8599500D02*
Y8718499D01*
X7871999Y9140500D02*
X7873000Y9139500D01*
X7841999Y8749500D02*
X7873000Y8718499D01*
X7518000Y8989500D02*
X7974499D01*
X7544500Y8749500D02*
X7841999D01*
X7434499Y8639500D02*
X7544500Y8749500D01*
X7350000Y9157500D02*
X7518000Y8989500D01*
X7264499Y8639500D02*
X7434499D01*
X7281999Y9089500D02*
X7350000Y9157500D01*
X7871999Y9140500D02*
Y9264500D01*
X7746000Y9139500D02*
Y9363000D01*
X7709499Y9399500D02*
X7746000Y9363000D01*
X7161999Y9399500D02*
X7709499D01*
X7350000Y9157500D02*
Y9259499D01*
X7223000D02*
X7232000Y9268499D01*
X7222500Y9259000D02*
X7223000Y9259499D01*
X7222500Y9172500D02*
Y9259000D01*
X7222000Y9172000D02*
X7222500Y9172500D01*
X6944499Y8644500D02*
X7039499D01*
X6884499Y8919500D02*
Y9054500D01*
X6774500Y8742000D02*
X6958304Y8558196D01*
X6827000Y8862000D02*
X6884499Y8919500D01*
X6766999Y8822000D02*
X6944499Y8644500D01*
X6741999Y8702000D02*
X6889499Y8554500D01*
X6716999Y8942000D02*
X6774499D01*
X6622000Y8862000D02*
X6827000D01*
X6716999Y8942000D02*
X6716999Y8942000D01*
X6622000Y8742000D02*
X6774500D01*
X6622000Y8822000D02*
X6766999D01*
X6622000Y8702000D02*
X6741999D01*
X6622000Y8942000D02*
X6716999D01*
X6547000Y8662000D02*
X6622000D01*
X7096000Y9333500D02*
X7161999Y9399500D01*
X6919499Y9089500D02*
X7281999D01*
X7096000Y9173000D02*
Y9259499D01*
Y9333500D01*
X7095499Y9172500D02*
X7096000Y9173000D01*
X6884499Y9054500D02*
X6919499Y9089500D01*
X6537000Y8474499D02*
X6551999Y8459500D01*
X6537000Y8474499D02*
Y8537000D01*
X6547000Y8782000D02*
X6622000D01*
X6546999Y8782000D02*
X6547000Y8782000D01*
X6546999Y8662000D02*
X6547000Y8662000D01*
X6335418Y9342000D02*
X6337000D01*
X6330718Y9337300D02*
X6335418Y9342000D01*
X6330718Y9315719D02*
Y9337300D01*
X6297000Y9282001D02*
X6330718Y9315719D01*
X6297000Y9227000D02*
Y9282001D01*
X6234499Y9314500D02*
Y9342000D01*
X6217000Y9297001D02*
X6234499Y9314500D01*
X6217000Y9227000D02*
Y9297001D01*
X6177000Y9227000D02*
X6177000Y9227000D01*
X6177000Y9227000D02*
Y9342000D01*
X6176999Y9342000D02*
X6177000Y9342000D01*
X6097000Y9227000D02*
Y9342000D01*
X6097000D02*
X6097000D01*
X6164500Y9492000D02*
Y9497000D01*
Y9637001D01*
X6137000Y9464500D02*
X6164500Y9492000D01*
X6137000Y9227000D02*
Y9464500D01*
X6097000Y9497001D02*
Y9582000D01*
X6097000Y9497001D02*
X6097000D01*
X6097000Y9582000D02*
X6097000D01*
X6097000Y9397000D02*
Y9497001D01*
X6204800Y9654800D02*
X6232000Y9682000D01*
X6182299Y9654800D02*
X6204800D01*
X6164500Y9637001D02*
X6182299Y9654800D01*
X7122001Y7317000D02*
X7194500D01*
X7304500Y7317000D02*
X7304500Y7317000D01*
X7194500Y7317000D02*
X7304500D01*
X7304500Y7317000D02*
X7438200D01*
X7439500Y7315700D01*
X7988701Y8222500D02*
X8061200D01*
X8000000Y9015001D02*
Y9139500D01*
X7974499Y8989500D02*
X8000000Y9015001D01*
D11*
X5837500Y10055000D02*
D03*
X5542499D02*
D03*
D12*
X5690000Y10205000D02*
D03*
Y9905000D02*
D03*
D13*
X11235000Y8797499D02*
D03*
Y8697499D02*
D03*
X5497000Y9154500D02*
D03*
Y9054500D02*
D03*
X9450000Y8000000D02*
D03*
Y7900000D02*
D03*
X9580000Y7900000D02*
D03*
Y8000000D02*
D03*
X3197500Y7977500D02*
D03*
Y7877500D02*
D03*
X3070000Y7877500D02*
D03*
Y7977500D02*
D03*
X3590000Y8897500D02*
D03*
Y8797500D02*
D03*
X7304500Y7417000D02*
D03*
Y7317000D02*
D03*
X7609500Y7584499D02*
D03*
Y7684499D02*
D03*
X7227000Y7699500D02*
D03*
Y7599500D02*
D03*
X7337000Y7599499D02*
D03*
Y7699499D02*
D03*
X7424500Y7819499D02*
D03*
Y7919499D02*
D03*
X7194500Y7417000D02*
D03*
Y7317000D02*
D03*
D14*
X6969000Y8479499D02*
D03*
X7096000D02*
D03*
X7223000D02*
D03*
X7350000D02*
D03*
Y9259499D02*
D03*
X7223000D02*
D03*
X7096000D02*
D03*
X6969000D02*
D03*
D15*
X7159500Y8869499D02*
D03*
D16*
X7619000Y9139500D02*
D03*
X7746000D02*
D03*
X7873000D02*
D03*
X8000000D02*
D03*
Y8599500D02*
D03*
X7873000D02*
D03*
X7746000D02*
D03*
X7619000D02*
D03*
D17*
X7556999Y9719500D02*
D03*
X7256999D02*
D03*
Y9869500D02*
D03*
X7556999D02*
D03*
D18*
X6097000Y9582000D02*
D03*
X6232000D02*
D03*
X6097000Y9682000D02*
D03*
X6232000D02*
D03*
D19*
X5932000Y9142000D02*
D03*
Y9102000D02*
D03*
Y9062000D02*
D03*
Y9022000D02*
D03*
Y8982000D02*
D03*
Y8942000D02*
D03*
Y8902000D02*
D03*
Y8862000D02*
D03*
Y8822000D02*
D03*
Y8782000D02*
D03*
Y8742000D02*
D03*
Y8702000D02*
D03*
Y8662000D02*
D03*
Y8622000D02*
D03*
X6622000D02*
D03*
Y8662000D02*
D03*
Y8702000D02*
D03*
Y8742000D02*
D03*
Y8782000D02*
D03*
Y8822000D02*
D03*
Y8862000D02*
D03*
Y8902000D02*
D03*
Y8942000D02*
D03*
Y8982000D02*
D03*
Y9022000D02*
D03*
Y9062000D02*
D03*
Y9102000D02*
D03*
Y9142000D02*
D03*
D20*
X6017000Y8537000D02*
D03*
X6057000D02*
D03*
X6097000D02*
D03*
X6137000D02*
D03*
X6177000D02*
D03*
X6217000D02*
D03*
X6257000D02*
D03*
X6297000D02*
D03*
X6337000D02*
D03*
X6377000D02*
D03*
X6417000D02*
D03*
X6457000D02*
D03*
X6497000D02*
D03*
X6537000D02*
D03*
Y9227000D02*
D03*
X6497000D02*
D03*
X6457000D02*
D03*
X6417000D02*
D03*
X6377000D02*
D03*
X6337000D02*
D03*
X6297000D02*
D03*
X6257000D02*
D03*
X6217000D02*
D03*
X6177000D02*
D03*
X6137000D02*
D03*
X6097000D02*
D03*
X6057000D02*
D03*
X6017000D02*
D03*
D21*
X6277000Y8882000D02*
D03*
D22*
X6714499Y8584500D02*
D03*
Y8529500D02*
D03*
X6774499Y8997000D02*
D03*
Y8942000D02*
D03*
X6769499Y8584500D02*
D03*
Y8529500D02*
D03*
X6716999Y8942000D02*
D03*
Y8997000D02*
D03*
X6234499Y8429500D02*
D03*
Y8374500D02*
D03*
X5644500Y9074501D02*
D03*
Y9129501D02*
D03*
X5582000Y9074501D02*
D03*
Y9129501D02*
D03*
X6969500Y9357000D02*
D03*
Y9412000D02*
D03*
X7671999Y9869500D02*
D03*
Y9924501D02*
D03*
X6337000Y9397000D02*
D03*
Y9342000D02*
D03*
X6234499Y9342000D02*
D03*
Y9397001D02*
D03*
X6176999Y9342000D02*
D03*
Y9397001D02*
D03*
X6097000Y9397000D02*
D03*
Y9342000D02*
D03*
D23*
X6147000Y8368000D02*
D03*
X6092000D02*
D03*
X5757000Y9132000D02*
D03*
X5702000D02*
D03*
X7674500Y9264500D02*
D03*
X7619500D02*
D03*
X6416999Y9319500D02*
D03*
X6472000D02*
D03*
X6032000Y9329500D02*
D03*
X5977000D02*
D03*
X5689500Y9547001D02*
D03*
X5634500D02*
D03*
X5689501Y9732001D02*
D03*
X5634501D02*
D03*
X6164500Y9497000D02*
D03*
X6219500D02*
D03*
X6097000Y9497001D02*
D03*
X6042000D02*
D03*
X3570000Y7320000D02*
D03*
X3515000D02*
D03*
X2822500Y7380000D02*
D03*
X2767499D02*
D03*
X2822500Y7324999D02*
D03*
X2767499D02*
D03*
D24*
X5756999Y9074499D02*
D03*
X5697000D02*
D03*
D25*
X7556999Y9562000D02*
D03*
X7456999D02*
D03*
X7114499Y9719500D02*
D03*
X7014499D02*
D03*
X7111999Y9869500D02*
D03*
X7011999D02*
D03*
X5914499Y9412000D02*
D03*
X6014500D02*
D03*
X7755000Y7837500D02*
D03*
X7655000D02*
D03*
X7754500Y7949500D02*
D03*
X7654500D02*
D03*
X10060000Y9907500D02*
D03*
X10160000D02*
D03*
X2382500Y9897500D02*
D03*
X2482500D02*
D03*
X6222002Y7744500D02*
D03*
X6122001D02*
D03*
X6594500Y7744500D02*
D03*
X6694500D02*
D03*
D26*
X5689499Y9609501D02*
D03*
Y9669501D02*
D03*
D27*
X6067000Y7536000D02*
D03*
X6147000D02*
D03*
X6627000D02*
D03*
X6707000D02*
D03*
D28*
X6262000D02*
D03*
X6362000D02*
D03*
X6412000D02*
D03*
X6512000D02*
D03*
X6562000D02*
D03*
X6462000D02*
D03*
X6312000D02*
D03*
X6212000D02*
D03*
D29*
X5875000Y7462000D02*
D03*
X6899000D02*
D03*
Y7065000D02*
D03*
X5875000D02*
D03*
D30*
X3624999Y7234999D02*
D03*
X3514999D02*
D03*
X2877499Y7239999D02*
D03*
X2767499D02*
D03*
X6274501Y7852000D02*
D03*
X6384501D02*
D03*
X6599500Y7852000D02*
D03*
X6489500D02*
D03*
D31*
X8061200Y8222500D02*
D03*
Y8032500D02*
D03*
X8298800Y8127500D02*
D03*
D32*
X8577500D02*
D03*
Y7977500D02*
D03*
X8420001D02*
D03*
Y8127500D02*
D03*
X8349500Y7364499D02*
D03*
Y7514499D02*
D03*
X8209500Y7364499D02*
D03*
Y7514499D02*
D03*
X7489501Y7049500D02*
D03*
Y7199500D02*
D03*
X7339500Y7049499D02*
D03*
Y7199499D02*
D03*
D33*
X3182499Y6910001D02*
D03*
X2767499D02*
D03*
X3182499Y7125001D02*
D03*
X2767499D02*
D03*
X3930000Y6905001D02*
D03*
X3515000D02*
D03*
X3930000Y7120000D02*
D03*
X3515000D02*
D03*
D34*
X7439500Y7315700D02*
D03*
X7489500D02*
D03*
X7539500D02*
D03*
X7589500D02*
D03*
Y7483299D02*
D03*
X7539500D02*
D03*
X7489500D02*
D03*
X7439500D02*
D03*
D35*
X7897000Y7187000D02*
D03*
Y7577000D02*
D03*
D36*
X5690000Y10055000D02*
X5837500D01*
X5542499D02*
X5690000D01*
Y10205000D01*
X3070000Y7799998D02*
Y7877500D01*
X2304998Y9897500D02*
X2382500D01*
X3590000Y8897500D02*
Y8975002D01*
X6899000Y7262500D02*
Y7462000D01*
Y7065000D02*
Y7262500D01*
X5875000Y7065000D02*
Y7262500D01*
Y7462000D01*
X6627000Y7536000D02*
X6627250Y7536250D01*
Y7644750D01*
X6627500Y7645000D01*
X6147250Y7536250D02*
Y7644750D01*
X6147500Y7645000D01*
X6147000Y7536000D02*
X6147250Y7536250D01*
X6707000Y7536000D02*
X6712000Y7541000D01*
X6744376Y7650587D02*
X6764587D01*
X6712000Y7618211D02*
X6744376Y7650587D01*
X6712000Y7541000D02*
Y7618211D01*
X6764587Y7650587D02*
X6766500Y7652500D01*
X6029623Y7650587D02*
X6062000Y7618211D01*
X6009413Y7650587D02*
X6029623D01*
X6062000Y7541000D02*
X6067000Y7536000D01*
X6062000Y7541000D02*
Y7618211D01*
X6007500Y7652500D02*
X6009413Y7650587D01*
X6204501Y7852000D02*
X6274501D01*
X6599500Y7852000D02*
X6669500D01*
X6694500Y7744500D02*
X6764500D01*
X6052002Y7744500D02*
X6122001D01*
X8061200Y8032500D02*
X8143700D01*
X9982499Y9907500D02*
X10060000D01*
X11235000Y8619998D02*
Y8697499D01*
X9450000Y7822499D02*
Y7900000D01*
X9580000Y7822499D02*
Y7900000D01*
X3197500Y7799999D02*
Y7877500D01*
X7755000Y7837500D02*
X7825000D01*
X7948000Y7949500D02*
X8095000Y7802500D01*
X7754500Y7949500D02*
X7948000D01*
X8095000Y7802500D02*
X8695000D01*
X9095000Y7402500D01*
Y7102500D02*
Y7402500D01*
X5494501Y9052000D02*
X5497000Y9054500D01*
X5416999Y9052000D02*
X5494501D01*
X5419499Y9154500D02*
X5497000D01*
X5836998Y9412000D02*
X5914499D01*
X7424500Y7919499D02*
Y7989498D01*
X7337000Y7699499D02*
Y7769499D01*
X7227000Y7699500D02*
Y7769499D01*
X7609500Y7684499D02*
X7692710D01*
X7722000Y7655210D01*
Y7416999D02*
Y7655210D01*
X7304500Y7417000D02*
Y7486999D01*
X7194500Y7417000D02*
Y7487000D01*
X8577500Y8127500D02*
Y8210000D01*
X8420001Y7977500D02*
X8577500D01*
X8298800Y8127500D02*
X8420001D01*
X3515000Y6905001D02*
X3622500D01*
X3622501Y6905000D01*
X3822500Y6905001D02*
X3930000D01*
X3822499Y6905001D02*
X3822500Y6905001D01*
X3074999Y6910001D02*
X3182499D01*
X3074998Y6910002D02*
X3074999Y6910001D01*
X2874999D02*
X2875000Y6910000D01*
X2767499Y6910001D02*
X2874999D01*
X3624999Y7234999D02*
X3702500D01*
X2877499Y7239999D02*
X2955000D01*
X8000000Y8477501D02*
Y8599500D01*
X7999499Y8477000D02*
X8000000Y8477501D01*
D37*
X6416999Y9319500D02*
Y9367001D01*
X6969000Y9259499D02*
Y9357000D01*
X2822500Y7378750D02*
X2871250D01*
X2872500Y7377500D01*
X2822500Y7378750D02*
Y7380000D01*
X5644500Y9074501D02*
X5697000D01*
X5582000D02*
X5644500D01*
X5929499Y9329500D02*
X5977000D01*
X6769499Y8482000D02*
Y8529500D01*
X6828919Y8530080D02*
X6829499Y8529500D01*
X6828919Y8530080D02*
Y8563773D01*
X6808192Y8584500D02*
X6828919Y8563773D01*
X6769499Y8584500D02*
X6808192D01*
X6714499Y8529500D02*
X6769499D01*
X6714499Y8584500D02*
X6769499D01*
X7619000Y9139500D02*
X7619500Y9139999D01*
X7674500Y9264500D02*
Y9312000D01*
X7619500Y9139999D02*
Y9264500D01*
X7571999D02*
X7619500D01*
X7444499Y9562000D02*
X7456999Y9574500D01*
X7381999Y9562000D02*
X7444499D01*
X6969500Y9412000D02*
Y9459501D01*
X6969000Y9357000D02*
X6969500D01*
X6921499D02*
X6969000D01*
X6774499Y8997000D02*
Y9044501D01*
X6716999Y8997000D02*
X6774499D01*
X6234499Y8429500D02*
X6282000D01*
X6234499Y8326999D02*
Y8374500D01*
X5829499Y9082000D02*
X5894500D01*
X5697000Y9074499D02*
Y9074501D01*
X5562000Y9054500D02*
X5582000Y9074501D01*
X5497001Y9054500D02*
X5562000D01*
X5497000Y9054500D02*
X5497001Y9054500D01*
X5782000Y9129500D02*
X5829499Y9082000D01*
X5757000Y9129500D02*
X5782000D01*
X5757000Y9127000D02*
Y9129500D01*
Y9129500D02*
Y9129500D01*
Y9132000D01*
X5756999Y9126999D02*
X5757000Y9127000D01*
X5756999Y9074499D02*
Y9126999D01*
X5714499Y9179088D02*
Y9184500D01*
X5702000Y9166588D02*
X5714499Y9179088D01*
X5702000Y9132000D02*
Y9166588D01*
X5644500Y9129501D02*
X5647000D01*
X5644500D02*
Y9179500D01*
X5644500Y9179500D02*
X5644500Y9179500D01*
X5581999Y9129501D02*
Y9177001D01*
X6472000Y9319500D02*
X6519500D01*
X6307000Y9582000D02*
X6307000Y9582000D01*
X6232000Y9582000D02*
X6307000D01*
X6229499Y9397001D02*
Y9444501D01*
X6229499Y9444501D02*
Y9449913D01*
X6219500Y9459912D02*
X6229499Y9449913D01*
X6219500Y9459912D02*
Y9497000D01*
X6176999Y9397001D02*
X6229499D01*
X6032000Y9265750D02*
Y9329500D01*
Y9389499D01*
X6014500Y9406999D02*
X6032000Y9389499D01*
X5587000Y9547001D02*
X5634500D01*
X5587000Y9732001D02*
X5634501D01*
X6042000Y9497001D02*
Y9502001D01*
X6041644D02*
X6042000D01*
X6026999Y9516645D02*
X6041644Y9502001D01*
X6026999Y9516645D02*
Y9545450D01*
X6005104Y9567345D02*
X6026999Y9545450D01*
X6014500Y9406999D02*
Y9412000D01*
X6005104Y9567345D02*
Y9572757D01*
X7256999Y9719500D02*
X7256999Y9719500D01*
X7114499Y9719500D02*
X7256999D01*
X6939499D02*
X7014499D01*
X6936999Y9869500D02*
X7011999D01*
X7671999D02*
X7719500D01*
X7556999D02*
X7671999D01*
X7556999Y9574500D02*
Y9719500D01*
X7111999Y9869500D02*
X7256999D01*
X7671999Y9924501D02*
Y9972001D01*
X6097000Y9682000D02*
Y9757000D01*
X6096999Y9757000D02*
X6097000Y9757000D01*
X3570000Y7320000D02*
X3617500D01*
X3617501Y7320001D01*
D38*
X6019500Y9259500D02*
X6057000D01*
X6709499Y8584500D02*
X6714499D01*
X6706999Y8587000D02*
X6709499Y8584500D01*
X6706999Y8587000D02*
Y8612000D01*
X6696999Y8622000D02*
X6706999Y8612000D01*
X6622000Y8622000D02*
X6696999D01*
X6622000Y9142000D02*
Y9189501D01*
X6622000Y9142000D02*
X6622000D01*
X6576245Y9062000D02*
X6622000D01*
X6234499Y8429500D02*
X6234500Y8429500D01*
X6229500Y8429500D02*
X6234499D01*
X6226999Y8432000D02*
X6229500Y8429500D01*
X6226999Y8432000D02*
Y8464500D01*
X6217000Y8474500D02*
X6226999Y8464500D01*
X6217000Y8474500D02*
Y8537000D01*
X6536999Y9102000D02*
X6622000D01*
X6541245Y9027000D02*
X6576245Y9062000D01*
X6536999Y9027000D02*
X6541245D01*
X5920284Y9062000D02*
X5932000D01*
X5899500Y9077000D02*
Y9102000D01*
X5899500Y9077000D02*
X5899500Y9077000D01*
X5899500Y9072000D02*
Y9077000D01*
X5920284Y9102000D02*
X5932000D01*
X5899500D02*
X5932000D01*
X6417000Y9227000D02*
Y9319500D01*
X6416999Y9319500D02*
X6417000Y9319500D01*
X6057000Y9227000D02*
Y9259500D01*
X2854999Y7262499D02*
Y7287500D01*
X2822500Y7319999D02*
Y7324999D01*
Y7319999D02*
X2854999Y7287500D01*
Y7262499D02*
X2877499Y7239999D01*
D39*
X6424850Y7591350D02*
Y7635000D01*
X6319205D02*
X6424850D01*
X6312000Y7536000D02*
Y7627795D01*
X6424850Y7635000D02*
Y7678740D01*
X6312000Y7627795D02*
X6319205Y7635000D01*
X6362000Y7434705D02*
Y7536000D01*
X6369205Y7427500D02*
X6454795D01*
X6462000Y7434705D01*
Y7536000D01*
X6362000Y7434705D02*
X6369205Y7427500D01*
X6412000Y7578500D02*
X6424850Y7591350D01*
X6424851Y7678741D02*
Y7818444D01*
X6449150Y7591350D02*
X6462000Y7578500D01*
X6384501Y7852000D02*
X6410851Y7825650D01*
X6456356Y7825650D02*
X6463150D01*
X6449151Y7668676D02*
Y7818445D01*
X6410851Y7825650D02*
X6417646D01*
X6449150Y7668675D02*
X6449151Y7668676D01*
X6449150Y7591350D02*
Y7668675D01*
X6449151Y7818445D02*
X6456356Y7825650D01*
X6462000Y7536000D02*
Y7578500D01*
X6463150Y7825650D02*
X6489500Y7852000D01*
X6417646Y7825650D02*
X6424851Y7818444D01*
X6424850Y7678740D02*
X6424851Y7678741D01*
X6412000Y7536000D02*
Y7578500D01*
X6384501Y7852000D02*
X6410851Y7878349D01*
X6417645D01*
X6424850Y8195525D02*
X6424850Y8195525D01*
X6424850Y8195525D02*
Y8496650D01*
X6417000Y8504500D02*
X6424850Y8496650D01*
X6424850Y7885555D02*
Y8195525D01*
X6449150Y7885556D02*
Y8205590D01*
Y7885556D02*
X6456356Y7878350D01*
X6463150D01*
X6489500Y7852000D01*
X6457000Y8504500D02*
Y8537000D01*
X6449150Y8496650D02*
X6457000Y8504500D01*
X6449150Y8205590D02*
Y8496650D01*
X6417645Y7878349D02*
X6424850Y7885555D01*
X6449150Y8205590D02*
X6449150Y8205590D01*
X6417000Y8504500D02*
Y8537000D01*
D40*
X7654500Y7949500D02*
X7654750Y7949250D01*
Y7837750D02*
X7655000Y7837500D01*
X7654750Y7837750D02*
Y7949250D01*
X7539500Y7483299D02*
Y7804500D01*
X7572500Y7837500D02*
X7655000D01*
X7539500Y7804500D02*
X7572500Y7837500D01*
X5999500Y9427000D02*
X6014500Y9412000D01*
X5999500Y9427000D02*
Y9449573D01*
X5999499Y9449574D02*
X5999500Y9449573D01*
X5999499Y9449574D02*
Y9472000D01*
X5964499Y9507000D02*
X5999499Y9472000D01*
X7489500Y7483299D02*
Y7634499D01*
X7424500Y7699499D02*
Y7819499D01*
Y7699499D02*
X7489500Y7634499D01*
X7589500Y7483299D02*
Y7492050D01*
X7591926D02*
X7609500Y7509623D01*
X7589500Y7492050D02*
X7591926D01*
X7609500Y7509623D02*
Y7584499D01*
X7227000Y7599500D02*
X7337000D01*
X7337000Y7599499D02*
X7414500D01*
X7439500Y7574499D01*
Y7483299D02*
Y7574499D01*
D41*
X7349750Y8479749D02*
X7350000Y8479499D01*
X7349750Y8479749D02*
Y8564250D01*
X7349499Y8564500D02*
X7349750Y8564250D01*
D42*
X1682500Y10485000D02*
D03*
X11057500Y10485000D02*
D03*
X11057500Y7110000D02*
D03*
X1682500Y7110000D02*
D03*
D43*
X4237500Y7000000D02*
D03*
X4491500D02*
D03*
X4745500D02*
D03*
X4999500D02*
D03*
X5253500D02*
D03*
X4190522Y8512277D02*
D03*
Y8258277D02*
D03*
Y8004277D02*
D03*
D44*
X5507500Y7000000D02*
D03*
D45*
X9345000Y7102500D02*
D03*
X9095000D02*
D03*
D46*
X8845000D02*
D03*
D47*
X6098000Y7410000D02*
D03*
X6676000D02*
D03*
D48*
X10410868Y9670500D02*
D03*
X10160868D02*
D03*
X9910868D02*
D03*
X11033868Y8797500D02*
D03*
Y9047500D02*
D03*
X2732500Y9670501D02*
D03*
X2482500D02*
D03*
X2232500D02*
D03*
X3355500Y8797501D02*
D03*
Y9047501D02*
D03*
D49*
X11033868Y8547500D02*
D03*
X3355500Y8547501D02*
D03*
D50*
X10793368Y9297500D02*
D03*
X9528369D02*
D03*
Y8297500D02*
D03*
X10793368D02*
D03*
X3115000Y9297501D02*
D03*
X1850000D02*
D03*
Y8297501D02*
D03*
X3115000D02*
D03*
D51*
X9835868Y8222500D02*
D03*
Y7772500D02*
D03*
X10485869Y8222500D02*
D03*
Y7772500D02*
D03*
X2157500Y8222500D02*
D03*
Y7772501D02*
D03*
X2807500Y8222500D02*
D03*
Y7772501D02*
D03*
D52*
X4190522Y7750277D02*
D03*
D53*
X5690000Y10055000D02*
D03*
X6899000Y7262500D02*
D03*
X5875000D02*
D03*
X6627500Y7645000D02*
D03*
X6147500D02*
D03*
X6766500Y7652500D02*
D03*
X6007500D02*
D03*
X6204501Y7852000D02*
D03*
X6669500Y7852000D02*
D03*
X6764500Y7744500D02*
D03*
X6052002Y7744500D02*
D03*
X8264500Y7626999D02*
D03*
X8159500D02*
D03*
X7825000Y7837500D02*
D03*
X8369500Y7626999D02*
D03*
X7414500Y6964499D02*
D03*
X7319500D02*
D03*
X7424500Y7989498D02*
D03*
X8577500Y8210000D02*
D03*
X7337000Y7769499D02*
D03*
X7227000Y7769499D02*
D03*
X7627000Y7254499D02*
D03*
X7509500Y6964499D02*
D03*
X7304500Y7486999D02*
D03*
X7194500Y7487000D02*
D03*
X8054500Y7626999D02*
D03*
D54*
X5482500Y8400000D02*
D03*
X4692500Y8270000D02*
D03*
X5032500Y8567500D02*
D03*
X8500000Y9000000D02*
D03*
X6500000Y10000000D02*
D03*
X8000000D02*
D03*
X9000000D02*
D03*
X8500000D02*
D03*
X3750000Y9500000D02*
D03*
X9750000Y10500000D02*
D03*
X9250000D02*
D03*
X7750000D02*
D03*
X7250000D02*
D03*
X6750000D02*
D03*
X6250000D02*
D03*
X5750000D02*
D03*
X5250000D02*
D03*
X10250000D02*
D03*
X8750000D02*
D03*
X8250000D02*
D03*
X4750000D02*
D03*
X2250000D02*
D03*
X2750000D02*
D03*
X3250000D02*
D03*
X3750000D02*
D03*
X4250000D02*
D03*
X11000000Y10000000D02*
D03*
X11250000Y9500000D02*
D03*
Y8500000D02*
D03*
Y7500000D02*
D03*
X10500000Y10000000D02*
D03*
Y9000000D02*
D03*
X10750000Y7500000D02*
D03*
X10500000Y7000000D02*
D03*
X10000000Y9000000D02*
D03*
X10250000Y8500000D02*
D03*
Y7500000D02*
D03*
X10000000Y7000000D02*
D03*
X9500000Y9000000D02*
D03*
X9750000Y8500000D02*
D03*
Y7500000D02*
D03*
X9500000Y7000000D02*
D03*
X9250000Y9500000D02*
D03*
X9000000Y9000000D02*
D03*
X9250000Y8500000D02*
D03*
X9000000Y8000000D02*
D03*
X9250000Y7500000D02*
D03*
X8750000Y9500000D02*
D03*
Y8500000D02*
D03*
Y7500000D02*
D03*
X8250000Y9500000D02*
D03*
Y8500000D02*
D03*
X8000000Y7000000D02*
D03*
X7000000Y8000000D02*
D03*
X6500000Y7000000D02*
D03*
X6000000Y10000000D02*
D03*
Y8000000D02*
D03*
X5000000Y10000000D02*
D03*
X5250000Y9500000D02*
D03*
X5000000Y9000000D02*
D03*
X4500000Y10000000D02*
D03*
X4750000Y9500000D02*
D03*
X4500000Y9000000D02*
D03*
X4750000Y7500000D02*
D03*
X4000000Y10000000D02*
D03*
X4250000Y9500000D02*
D03*
X4000000Y9000000D02*
D03*
Y8000000D02*
D03*
X3500000Y10000000D02*
D03*
X3000000D02*
D03*
X3250000Y9500000D02*
D03*
X3000000Y9000000D02*
D03*
X3250000Y7500000D02*
D03*
X3000000Y7000000D02*
D03*
X2500000Y10000000D02*
D03*
Y9000000D02*
D03*
X2750000Y8500000D02*
D03*
X2500000Y8000000D02*
D03*
X2750000Y7500000D02*
D03*
X2500000Y7000000D02*
D03*
X2000000Y10000000D02*
D03*
X2250000Y9500000D02*
D03*
X2000000Y9000000D02*
D03*
X2250000Y8500000D02*
D03*
X2000000Y8000000D02*
D03*
X2250000Y7500000D02*
D03*
X2000000Y7000000D02*
D03*
X1500000Y10000000D02*
D03*
X1750000Y9500000D02*
D03*
X1500000Y9000000D02*
D03*
X1750000Y8500000D02*
D03*
X1500000Y8000000D02*
D03*
X1750000Y7500000D02*
D03*
D55*
X3457500Y7320000D02*
D03*
X2710000Y7380000D02*
D03*
X3070000Y7799998D02*
D03*
X5752500Y8932500D02*
D03*
X5687500Y8980000D02*
D03*
X6016250Y8662250D02*
D03*
X5827500Y8670000D02*
D03*
X6447500Y9540000D02*
D03*
X6365000Y9537500D02*
D03*
X6422000Y8737001D02*
D03*
X6395000Y9442500D02*
D03*
X6416999Y9367001D02*
D03*
X6421999Y9027000D02*
D03*
X6422000Y8882001D02*
D03*
X2304998Y9897500D02*
D03*
X3590000Y8975002D02*
D03*
X6276999Y9027000D02*
D03*
X5416999Y9052000D02*
D03*
X8143700Y8032500D02*
D03*
X2872500Y7377500D02*
D03*
X9982499Y9907500D02*
D03*
X11235000Y8619998D02*
D03*
X9450000Y7822499D02*
D03*
X9580000Y7822499D02*
D03*
X3197500Y7799999D02*
D03*
X5929499Y9329500D02*
D03*
X6131999Y9026999D02*
D03*
X6257500Y9142500D02*
D03*
X7746000Y8475500D02*
D03*
X7349499Y8564500D02*
D03*
X7287000Y8741999D02*
D03*
X7159500D02*
D03*
X7094499Y8387000D02*
D03*
X7031999Y8741999D02*
D03*
Y8869499D02*
D03*
X6829499Y8529500D02*
D03*
X6769500Y8481999D02*
D03*
X6546999Y8662000D02*
D03*
Y8782000D02*
D03*
X6282000Y8429500D02*
D03*
X6277000Y8737000D02*
D03*
X6234500Y8326999D02*
D03*
X6132000Y8737000D02*
D03*
X7871999Y9264500D02*
D03*
X7674500Y9312001D02*
D03*
X7571999Y9264500D02*
D03*
X7350000Y9157500D02*
D03*
X7287000Y8869499D02*
D03*
Y8997000D02*
D03*
X7222000Y9172000D02*
D03*
X7159500Y8869499D02*
D03*
Y8997000D02*
D03*
X7095499Y9172500D02*
D03*
X7031999Y8997000D02*
D03*
X6921499Y9357000D02*
D03*
X6774499Y9044501D02*
D03*
X6622000Y9189501D02*
D03*
X6536999Y9102000D02*
D03*
Y9027000D02*
D03*
X6519500Y9319501D02*
D03*
X6277000Y8882000D02*
D03*
X6132000Y8882000D02*
D03*
X5714499Y9184500D02*
D03*
X5644500Y9179500D02*
D03*
X5581999Y9177001D02*
D03*
X5586999Y9547000D02*
D03*
X5419499Y9154500D02*
D03*
X5587000Y9732000D02*
D03*
X7671999Y9972001D02*
D03*
X7719500Y9869501D02*
D03*
X7381999Y9562000D02*
D03*
X6969499Y9459501D02*
D03*
X6939499Y9719500D02*
D03*
X6936999Y9869500D02*
D03*
X6307000Y9582000D02*
D03*
X6229499Y9444501D02*
D03*
X6096999Y9757000D02*
D03*
X6005104Y9572757D02*
D03*
X5964499Y9507000D02*
D03*
X5836998Y9412000D02*
D03*
X7249501Y7227000D02*
D03*
X7122001Y7317000D02*
D03*
X7249501Y7162000D02*
D03*
X8224500Y7279500D02*
D03*
X8344500D02*
D03*
X8284500D02*
D03*
X7988701Y8222500D02*
D03*
X3622501Y6905000D02*
D03*
X3822499Y6905001D02*
D03*
X3074998Y6910002D02*
D03*
X2875000Y6910000D02*
D03*
X3702500Y7234999D02*
D03*
X2955000Y7239999D02*
D03*
X7999499Y8477000D02*
D03*
X3617501Y7320001D02*
D03*
%TF.MD5,7db11de784413fe2754491908e5b4003*%
M02*
