%TF.GenerationSoftware,Altium Limited,Altium Designer,25.3.3 (18)*%
G04 Layer_Color=0*
%FSLAX45Y45*%
%MOMM*%
%TF.SameCoordinates,94F19C35-717A-4B45-A619-7893C40BEDFD*%
%TF.FilePolarity,Positive*%
%TF.FileFunction,Plated,1,4,PTH,Drill*%
%TF.Part,Single*%
G01*
G75*
%TA.AperFunction,OtherDrill,Pad Free-22 (16.825mm,104.85mm)*%
%ADD101C,3.20000*%
%TA.AperFunction,OtherDrill,Pad Free-22 (110.575mm,104.85mm)*%
%ADD102C,3.20000*%
%TA.AperFunction,OtherDrill,Pad Free-22 (110.575mm,71.1mm)*%
%ADD103C,3.20000*%
%TA.AperFunction,OtherDrill,Pad Free-22 (16.825mm,71.1mm)*%
%ADD104C,3.20000*%
%TA.AperFunction,ComponentDrill*%
%ADD105C,1.15000*%
%ADD106C,0.84000*%
%ADD107C,1.10000*%
%ADD108C,1.60000*%
%ADD109C,1.30000*%
%ADD110C,1.15000*%
%TA.AperFunction,ViaDrill,NotFilled*%
%ADD111C,0.30000*%
%ADD112C,0.40000*%
D101*
X1682500Y10485000D02*
D03*
D102*
X11057500Y10485000D02*
D03*
D103*
X11057500Y7110000D02*
D03*
D104*
X1682500Y7110000D02*
D03*
D105*
X4237500Y7000000D02*
D03*
X4491500D02*
D03*
X4745500D02*
D03*
X4999500D02*
D03*
X5253500D02*
D03*
X5507500D02*
D03*
D106*
X9345000Y7102500D02*
D03*
X9095000D02*
D03*
X8845000D02*
D03*
D107*
X10410868Y9670500D02*
D03*
X10160868D02*
D03*
X9910868D02*
D03*
X11033868Y8547500D02*
D03*
Y8797500D02*
D03*
Y9047500D02*
D03*
X2732500Y9670501D02*
D03*
X2482500D02*
D03*
X2232500D02*
D03*
X3355500Y8547501D02*
D03*
Y8797501D02*
D03*
Y9047501D02*
D03*
D108*
X10793368Y9297500D02*
D03*
X9528369D02*
D03*
Y8297500D02*
D03*
X10793368D02*
D03*
X3115000Y9297501D02*
D03*
X1850000D02*
D03*
Y8297501D02*
D03*
X3115000D02*
D03*
D109*
X9835868Y8222500D02*
D03*
Y7772500D02*
D03*
X10485869Y8222500D02*
D03*
Y7772500D02*
D03*
X2157500Y8222500D02*
D03*
Y7772501D02*
D03*
X2807500Y8222500D02*
D03*
Y7772501D02*
D03*
D110*
X4190522Y8512277D02*
D03*
Y8258277D02*
D03*
Y8004277D02*
D03*
Y7750277D02*
D03*
D111*
X5690000Y10055000D02*
D03*
X3457500Y7320000D02*
D03*
X2710000Y7380000D02*
D03*
X3070000Y7799998D02*
D03*
X5752500Y8932500D02*
D03*
X5687500Y8980000D02*
D03*
X6016250Y8662250D02*
D03*
X5827500Y8670000D02*
D03*
X6447500Y9540000D02*
D03*
X6365000Y9537500D02*
D03*
X6422000Y8737001D02*
D03*
X6395000Y9442500D02*
D03*
X6416999Y9367001D02*
D03*
X6421999Y9027000D02*
D03*
X6422000Y8882001D02*
D03*
X2304998Y9897500D02*
D03*
X3590000Y8975002D02*
D03*
X6276999Y9027000D02*
D03*
X5416999Y9052000D02*
D03*
X6899000Y7262500D02*
D03*
X5875000D02*
D03*
X6627500Y7645000D02*
D03*
X6147500D02*
D03*
X6766500Y7652500D02*
D03*
X6007500D02*
D03*
X6204501Y7852000D02*
D03*
X6669500Y7852000D02*
D03*
X6764500Y7744500D02*
D03*
X6052002Y7744500D02*
D03*
X8143700Y8032500D02*
D03*
X2872500Y7377500D02*
D03*
X9982499Y9907500D02*
D03*
X11235000Y8619998D02*
D03*
X9450000Y7822499D02*
D03*
X9580000Y7822499D02*
D03*
X3197500Y7799999D02*
D03*
X5929499Y9329500D02*
D03*
X6131999Y9026999D02*
D03*
X6257500Y9142500D02*
D03*
X8264500Y7626999D02*
D03*
X8159500D02*
D03*
X7825000Y7837500D02*
D03*
X7746000Y8475500D02*
D03*
X7349499Y8564500D02*
D03*
X7287000Y8741999D02*
D03*
X7159500D02*
D03*
X7094499Y8387000D02*
D03*
X7031999Y8741999D02*
D03*
Y8869499D02*
D03*
X6829499Y8529500D02*
D03*
X6769500Y8481999D02*
D03*
X6546999Y8662000D02*
D03*
Y8782000D02*
D03*
X6282000Y8429500D02*
D03*
X6277000Y8737000D02*
D03*
X6234500Y8326999D02*
D03*
X6132000Y8737000D02*
D03*
X7871999Y9264500D02*
D03*
X7674500Y9312001D02*
D03*
X7571999Y9264500D02*
D03*
X7350000Y9157500D02*
D03*
X7287000Y8869499D02*
D03*
Y8997000D02*
D03*
X7222000Y9172000D02*
D03*
X7159500Y8869499D02*
D03*
Y8997000D02*
D03*
X7095499Y9172500D02*
D03*
X7031999Y8997000D02*
D03*
X6921499Y9357000D02*
D03*
X6774499Y9044501D02*
D03*
X6622000Y9189501D02*
D03*
X6536999Y9102000D02*
D03*
Y9027000D02*
D03*
X6519500Y9319501D02*
D03*
X6277000Y8882000D02*
D03*
X6132000Y8882000D02*
D03*
X5714499Y9184500D02*
D03*
X5644500Y9179500D02*
D03*
X5581999Y9177001D02*
D03*
X5586999Y9547000D02*
D03*
X5419499Y9154500D02*
D03*
X5587000Y9732000D02*
D03*
X7671999Y9972001D02*
D03*
X7719500Y9869501D02*
D03*
X7381999Y9562000D02*
D03*
X6969499Y9459501D02*
D03*
X6939499Y9719500D02*
D03*
X6936999Y9869500D02*
D03*
X6307000Y9582000D02*
D03*
X6229499Y9444501D02*
D03*
X6096999Y9757000D02*
D03*
X6005104Y9572757D02*
D03*
X5964499Y9507000D02*
D03*
X5836998Y9412000D02*
D03*
X8369500Y7626999D02*
D03*
X7249501Y7227000D02*
D03*
X7122001Y7317000D02*
D03*
X7414500Y6964499D02*
D03*
X7319500D02*
D03*
X7424500Y7989498D02*
D03*
X8577500Y8210000D02*
D03*
X7337000Y7769499D02*
D03*
X7227000Y7769499D02*
D03*
X7627000Y7254499D02*
D03*
X7509500Y6964499D02*
D03*
X7304500Y7486999D02*
D03*
X7194500Y7487000D02*
D03*
X7249501Y7162000D02*
D03*
X8224500Y7279500D02*
D03*
X8344500D02*
D03*
X8284500D02*
D03*
X8054500Y7626999D02*
D03*
X7988701Y8222500D02*
D03*
X3622501Y6905000D02*
D03*
X3822499Y6905001D02*
D03*
X3074998Y6910002D02*
D03*
X2875000Y6910000D02*
D03*
X3702500Y7234999D02*
D03*
X2955000Y7239999D02*
D03*
X7999499Y8477000D02*
D03*
X3617501Y7320001D02*
D03*
D112*
X5482500Y8400000D02*
D03*
X4692500Y8270000D02*
D03*
X5032500Y8567500D02*
D03*
X8500000Y9000000D02*
D03*
X6500000Y10000000D02*
D03*
X8000000D02*
D03*
X9000000D02*
D03*
X8500000D02*
D03*
X3750000Y9500000D02*
D03*
X9750000Y10500000D02*
D03*
X9250000D02*
D03*
X7750000D02*
D03*
X7250000D02*
D03*
X6750000D02*
D03*
X6250000D02*
D03*
X5750000D02*
D03*
X5250000D02*
D03*
X10250000D02*
D03*
X8750000D02*
D03*
X8250000D02*
D03*
X4750000D02*
D03*
X2250000D02*
D03*
X2750000D02*
D03*
X3250000D02*
D03*
X3750000D02*
D03*
X4250000D02*
D03*
X11000000Y10000000D02*
D03*
X11250000Y9500000D02*
D03*
Y8500000D02*
D03*
Y7500000D02*
D03*
X10500000Y10000000D02*
D03*
Y9000000D02*
D03*
X10750000Y7500000D02*
D03*
X10500000Y7000000D02*
D03*
X10000000Y9000000D02*
D03*
X10250000Y8500000D02*
D03*
Y7500000D02*
D03*
X10000000Y7000000D02*
D03*
X9500000Y9000000D02*
D03*
X9750000Y8500000D02*
D03*
Y7500000D02*
D03*
X9500000Y7000000D02*
D03*
X9250000Y9500000D02*
D03*
X9000000Y9000000D02*
D03*
X9250000Y8500000D02*
D03*
X9000000Y8000000D02*
D03*
X9250000Y7500000D02*
D03*
X8750000Y9500000D02*
D03*
Y8500000D02*
D03*
Y7500000D02*
D03*
X8250000Y9500000D02*
D03*
Y8500000D02*
D03*
X8000000Y7000000D02*
D03*
X7000000Y8000000D02*
D03*
X6500000Y7000000D02*
D03*
X6000000Y10000000D02*
D03*
Y8000000D02*
D03*
X5000000Y10000000D02*
D03*
X5250000Y9500000D02*
D03*
X5000000Y9000000D02*
D03*
X4500000Y10000000D02*
D03*
X4750000Y9500000D02*
D03*
X4500000Y9000000D02*
D03*
X4750000Y7500000D02*
D03*
X4000000Y10000000D02*
D03*
X4250000Y9500000D02*
D03*
X4000000Y9000000D02*
D03*
Y8000000D02*
D03*
X3500000Y10000000D02*
D03*
X3000000D02*
D03*
X3250000Y9500000D02*
D03*
X3000000Y9000000D02*
D03*
X3250000Y7500000D02*
D03*
X3000000Y7000000D02*
D03*
X2500000Y10000000D02*
D03*
Y9000000D02*
D03*
X2750000Y8500000D02*
D03*
X2500000Y8000000D02*
D03*
X2750000Y7500000D02*
D03*
X2500000Y7000000D02*
D03*
X2000000Y10000000D02*
D03*
X2250000Y9500000D02*
D03*
X2000000Y9000000D02*
D03*
X2250000Y8500000D02*
D03*
X2000000Y8000000D02*
D03*
X2250000Y7500000D02*
D03*
X2000000Y7000000D02*
D03*
X1500000Y10000000D02*
D03*
X1750000Y9500000D02*
D03*
X1500000Y9000000D02*
D03*
X1750000Y8500000D02*
D03*
X1500000Y8000000D02*
D03*
X1750000Y7500000D02*
D03*
%TF.MD5,38477f22c52b0a68e97f0e8e374a66b2*%
M02*
